<svg fill="none" height="640" viewBox="0 0 1280 640" width="1280" xmlns="http://www.w3.org/2000/svg" xmlns:xlink="http://www.w3.org/1999/xlink"><clipPath id="a"><path d="m0 0h1280v640h-1280z"/></clipPath><clipPath id="b"><path d="m3-316h1273.64v1272.71h-1273.64z"/></clipPath><g clip-path="url(#a)"><path d="m0 0h1280v640h-1280z" fill="#000"/><g clip-path="url(#b)" opacity=".4"><path d="m219.22 18.6296c2.01 0 3.64-1.6297 3.64-3.64s-1.63-3.64-3.64-3.64-3.64 1.6297-3.64 3.64 1.63 3.64 3.64 3.64z" fill="#333"/><path d="m664.63 20.1397c.403 0 .73-.3268.73-.73s-.327-.73-.73-.73-.73.3268-.73.73.327.73.73.73z" fill="#aeaeae"/><path d="m333.64 30.7702c.492 0 .89-.3984.89-.89 0-.4915-.398-.89-.89-.89s-.89.3985-.89.89c0 .4916.398.89.89.89z" fill="#aeaeae"/><path d="m224.3.140289c.1 0 .18-.0806116.18-.1800229 0-.0994111-.08-.1799931-.18-.1799931-.099 0-.18.080582-.18.1799931 0 .0994113.081.1800229.18.1800229z" fill="#aeaeae"/><path d="m330.2 34.0198c.475 0 .86-.385.86-.86 0-.4749-.385-.86-.86-.86s-.86.3851-.86.86c0 .475.385.86.86.86z" fill="#aeaeae"/><path d="m363.67 26.0897c.044 0 .08-.0358.08-.08s-.036-.08-.08-.08-.08.0358-.08.08.036.08.08.08z" fill="#888788"/><path d="m406.08.980316c1.011 0 1.83-.819336 1.83-1.830017 0-1.010679-.819-1.829989-1.83-1.829989s-1.83.81931-1.83 1.829989c0 1.010681.819 1.830017 1.83 1.830017z" fill="#888788"/><path d="m486.46 6.70032c1.9 0 3.44-1.54015 3.44-3.44001 0-1.89985-1.54-3.439998-3.44-3.439998s-3.44 1.540148-3.44 3.439998c0 1.89986 1.54 3.44001 3.44 3.44001z" fill="#888788"/><path d="m627.22 27.9404c.138 0 .25-.1119.25-.25 0-.138-.112-.25-.25-.25s-.25.112-.25.25c0 .1381.112.25.25.25z" fill="#aeaeae"/><path d="m628.34 24.5403c2.43 0 4.4-1.97 4.4-4.4 0-2.4301-1.97-4.4001-4.4-4.4001s-4.4 1.97-4.4 4.4001c0 2.43 1.97 4.4 4.4 4.4z" fill="#aeaeae"/><path d="m816.76 21.1702c.061 0 .11-.0493.11-.11 0-.0608-.049-.11-.11-.11s-.11.0492-.11.11c0 .0607.049.11.11.11z" fill="#aeaeae"/><path d="m921.21 5.27954c1.591 0 2.88-1.28942 2.88-2.88 0-1.590584-1.289-2.880009-2.88-2.880009-1.59 0-2.88 1.289425-2.88 2.880009 0 1.59058 1.29 2.88 2.88 2.88z" fill="#aeaeae"/><path d="m1064.01 26.9101c.98 0 1.77-.7924 1.77-1.77 0-.9775-.79-1.77-1.77-1.77s-1.77.7925-1.77 1.77c0 .9776.79 1.77 1.77 1.77z" fill="#aeaeae"/><path d="m1106.86 30.8604c.83 0 1.5-.6716 1.5-1.5 0-.8285-.67-1.5-1.5-1.5s-1.5.6715-1.5 1.5c0 .8284.67 1.5 1.5 1.5z" fill="#2ca3f4"/><path d="m1236.55 58.8101c.55 0 .99-.4432.99-.99s-.44-.99-.99-.99-.99.4432-.99.99.44.99.99.99z" fill="#aeaeae"/><path d="m1214.19 65.6996c.04 0 .07-.0314.07-.07 0-.0387-.03-.07-.07-.07s-.07.0313-.07.07c0 .0386.03.07.07.07z" fill="#aeaeae"/><path d="m46.2299 34.6097c1.1432 0 2.07-.9267 2.07-2.07 0-1.1432-.9268-2.07-2.07-2.07s-2.07.9268-2.07 2.07c0 1.1433.9268 2.07 2.07 2.07z" fill="#333"/><path d="m106.32 108.86c.735 0 1.33-.595 1.33-1.33 0-.734-.595-1.33-1.33-1.33s-1.33.596-1.33 1.33c0 .735.595 1.33 1.33 1.33z" fill="#aeaeae"/><path d="m188.01 73.15c.26 0 .47-.2105.47-.47 0-.2596-.21-.47-.47-.47s-.47.2104-.47.47c0 .2595.21.47.47.47z" fill="#aeaeae"/><path d="m170.59.700165c.563 0 1.02-.456689 1.02-1.02002 0-.56333-.457-1.019985-1.02-1.019985s-1.02.456655-1.02 1.019985c0 .563331.457 1.02002 1.02 1.02002z" fill="#e74666"/><path d="m179.06 66.0096c.596 0 1.08-.4835 1.08-1.08s-.484-1.08-1.08-1.08-1.08.4835-1.08 1.08.484 1.08 1.08 1.08z" fill="#aeaeae"/><path d="m333.38 31.3499c.613 0 1.11-.497 1.11-1.11 0-.6131-.497-1.11-1.11-1.11s-1.11.4969-1.11 1.11c0 .613.497 1.11 1.11 1.11z" fill="#aeaeae"/><path d="m440.13 39.3796c.342 0 .62-.2775.62-.62 0-.3424-.278-.62-.62-.62s-.62.2776-.62.62c0 .3425.278.62.62.62z" fill="#aeaeae"/><path d="m516.07 71.8798c.171 0 .31-.1388.31-.31s-.139-.31-.31-.31-.31.1388-.31.31.139.31.31.31z" fill="#888788"/><path d="m567.8 9.8403c.144 0 .26-.11641.26-.26001 0-.14359-.116-.25998-.26-.25998s-.26.11639-.26.25998c0 .1436.116.26001.26.26001z" fill="#aeaeae"/><path d="m495.34 59.8302c.243 0 .44-.197.44-.44s-.197-.44-.44-.44-.44.197-.44.44.197.44.44.44z" fill="#aeaeae"/><path d="m591.99 9.04962c.734 0 1.33-.59545 1.33-1.32998 0-.73454-.596-1.32999-1.33-1.32999-.735 0-1.33.59545-1.33 1.32999 0 .73453.595 1.32998 1.33 1.32998z" fill="#aeaeae"/><path d="m697.42 10.1003c.917 0 1.66-.74323 1.66-1.66002 0-.9168-.743-1.66001-1.66-1.66001s-1.66.74321-1.66 1.66001c0 .91679.743 1.66002 1.66 1.66002z" fill="#aeaeae"/><path d="m750.67 17.3203c.414 0 .75-.3358.75-.75s-.336-.75-.75-.75-.75.3358-.75.75.336.75.75.75z" fill="#333"/><path d="m717.67 81.52c.845 0 1.53-.685 1.53-1.53s-.685-1.53-1.53-1.53-1.53.685-1.53 1.53.685 1.53 1.53 1.53z" fill="#aeaeae"/><path d="m814.54 54.9497c1.928 0 3.49-1.5625 3.49-3.49s-1.562-3.49-3.49-3.49c-1.927 0-3.49 1.5625-3.49 3.49s1.563 3.49 3.49 3.49z" fill="#888788"/><path d="m830.47 64.5096c.447 0 .81-.3626.81-.81 0-.4473-.363-.81-.81-.81s-.81.3627-.81.81c0 .4474.363.81.81.81z" fill="#333"/><path d="m984.65 59.4203c1.005 0 1.82-.8149 1.82-1.82 0-1.0052-.815-1.82-1.82-1.82s-1.82.8148-1.82 1.82c0 1.0051.815 1.82 1.82 1.82z" fill="#aeaeae"/><path d="m1009.13 23.0002c1.87 0 3.38-1.5132 3.38-3.38 0-1.8667-1.51-3.38-3.38-3.38s-3.38 1.5133-3.38 3.38c0 1.8668 1.51 3.38 3.38 3.38z" fill="#aeaeae"/><path d="m1124.35 16.7097c.48 0 .87-.3895.87-.87s-.39-.87-.87-.87-.87.3895-.87.87.39.87.87.87z" fill="#aeaeae"/><path d="m131.01 11.6204c.464 0 .84-.3761.84-.84s-.376-.83997-.84-.83997-.84.37607-.84.83997.376.84.84.84z" fill="#333"/><path d="m104.62 64.58c1.127 0 2.04-.9133 2.04-2.04s-.913-2.04-2.04-2.04-2.04.9133-2.04 2.04.913 2.04 2.04 2.04z" fill="#aeaeae"/><path d="m204.46 74.3804c2.054 0 3.72-1.6655 3.72-3.72s-1.666-3.72-3.72-3.72c-2.055 0-3.72 1.6655-3.72 3.72s1.665 3.72 3.72 3.72z" fill="#aeaeae"/><path d="m164.89 64.7699c.994 0 1.8-.8059 1.8-1.8s-.806-1.8-1.8-1.8-1.8.8059-1.8 1.8.806 1.8 1.8 1.8z" fill="#aeaeae"/><path d="m262.11 79.9499c.088 0 .16-.0716.16-.16s-.072-.16-.16-.16-.16.0716-.16.16.072.16.16.16z" fill="#aeaeae"/><path d="m250.95 93.8202c1.977 0 3.58-1.6029 3.58-3.5801 0-1.9771-1.603-3.5799-3.58-3.5799s-3.58 1.6028-3.58 3.5799c0 1.9772 1.603 3.5801 3.58 3.5801z" fill="#333"/><path d="m355.36 38.9796c.127 0 .23-.103.23-.2301 0-.127-.103-.23-.23-.23s-.23.103-.23.23c0 .1271.103.2301.23.2301z" fill="#aeaeae"/><path d="m440.22 46.8695c.028 0 .05-.0223.05-.05 0-.0276-.022-.05-.05-.05s-.05.0224-.05.05c0 .0277.022.05.05.05z" fill="#333"/><path d="m501.86 62.7899c.746 0 1.35-.6045 1.35-1.3501 0-.7455-.604-1.35-1.35-1.35s-1.35.6045-1.35 1.35c0 .7456.604 1.3501 1.35 1.3501z" fill="#333"/><path d="m496.19 64.9702c.155 0 .28-.1254.28-.28 0-.1547-.125-.28-.28-.28s-.28.1253-.28.28c0 .1546.125.28.28.28z" fill="#333"/><path d="m579.85 67.3601c.757 0 1.37-.6134 1.37-1.37s-.613-1.37-1.37-1.37-1.37.6134-1.37 1.37.613 1.37 1.37 1.37z" fill="#aeaeae"/><path d="m563.2 136.7c.204 0 .37-.166.37-.37s-.166-.37-.37-.37-.37.166-.37.37.166.37.37.37z" fill="#aeaeae"/><path d="m557.99 56.8802c.337 0 .61-.2732.61-.6101s-.273-.6099-.61-.6099-.61.273-.61.6099.273.6101.61.6101z" fill="#333"/><path d="m657.69 59.5402c.37 0 .67-.3.67-.67 0-.3701-.3-.67-.67-.67s-.67.2999-.67.67c0 .37.3.67.67.67z" fill="#2ca3f4"/><path d="m722.32 149.06c.188 0 .34-.152.34-.34s-.152-.34-.34-.34-.34.152-.34.34.152.34.34.34z" fill="#aeaeae"/><path d="m653.68 80.3799c1.093 0 1.98-.8865 1.98-1.98s-.887-1.98-1.98-1.98c-1.094 0-1.98.8865-1.98 1.98s.886 1.98 1.98 1.98z" fill="#aeaeae"/><path d="m762.86 65.0302c.712 0 1.29-.5776 1.29-1.29 0-.7125-.578-1.29-1.29-1.29s-1.29.5775-1.29 1.29c0 .7124.578 1.29 1.29 1.29z" fill="#aeaeae"/><path d="m753.74 118.99c.116 0 .21-.094.21-.21s-.094-.21-.21-.21-.21.094-.21.21.094.21.21.21z" fill="#aeaeae"/><path d="m906.19 88.22c1.453 0 2.63-1.1775 2.63-2.63s-1.177-2.63-2.63-2.63c-1.452 0-2.63 1.1775-2.63 2.63s1.178 2.63 2.63 2.63z" fill="#aeaeae"/><path d="m939.74 36.8299c.182 0 .33-.1477.33-.33 0-.1822-.148-.33-.33-.33s-.33.1478-.33.33c0 .1823.148.33.33.33z" fill="#2ca3f4"/><path d="m1031.1 46.6497c.89 0 1.61-.7208 1.61-1.61s-.72-1.61-1.61-1.61-1.61.7208-1.61 1.61.72 1.61 1.61 1.61z" fill="#aeaeae"/><path d="m966.53 28.3696c.409 0 .74-.3313.74-.74s-.331-.74-.74-.74-.74.3313-.74.74.331.74.74.74z" fill="#aeaeae"/><path d="m976.59 78.3696c.293 0 .53-.2373.53-.53s-.237-.53-.53-.53-.53.2373-.53.53.237.53.53.53z" fill="#333"/><path d="m1053.17 16.1304c.12 0 .22-.0985.22-.22s-.1-.22-.22-.22-.22.0985-.22.22.1.22.22.22z" fill="#aeaeae"/><path d="m1087.68 8.6904c.29 0 .52-.2328.52-.51999s-.23-.52002-.52-.52002-.52.23283-.52.52002.23.51999.52.51999z" fill="#2ca3f4"/><path d="m1236.23 38.4396c.38 0 .69-.309.69-.69 0-.3811-.31-.69-.69-.69s-.69.3089-.69.69c0 .381.31.69.69.69z" fill="#aeaeae"/><path d="m1231.68 8.41965c.49 0 .89-.39848.89-.89002 0-.49153-.4-.88998-.89-.88998s-.89.39845-.89.88998c0 .49154.4.89002.89.89002z" fill="#888788"/><path d="m128.52 196.08c.072 0 .13-.058.13-.13 0-.071-.058-.13-.13-.13s-.13.059-.13.13c0 .072.058.13.13.13z" fill="#333"/><path d="m164.07 112.93c.16 0 .29-.13.29-.29 0-.161-.13-.29-.29-.29s-.29.129-.29.29c0 .16.13.29.29.29z" fill="#aeaeae"/><path d="m164.86 20.3103c.066 0 .12-.0537.12-.12s-.054-.12-.12-.12-.12.0537-.12.12.054.12.12.12z" fill="#aeaeae"/><path d="m198.67 24.7104c.707 0 1.28-.5731 1.28-1.28s-.573-1.28-1.28-1.28-1.28.5731-1.28 1.28.573 1.28 1.28 1.28z" fill="#aeaeae"/><path d="m255.19 93.7502c.784 0 1.42-.6358 1.42-1.4201 0-.7842-.636-1.4199-1.42-1.4199s-1.42.6357-1.42 1.4199c0 .7843.636 1.4201 1.42 1.4201z" fill="#333"/><path d="m264.8 67.5904c.961 0 1.74-.7791 1.74-1.74 0-.961-.779-1.74-1.74-1.74s-1.74.779-1.74 1.74c0 .9609.779 1.74 1.74 1.74z" fill="#aeaeae"/><path d="m295.29 157.5c.331 0 .6-.269.6-.6 0-.332-.269-.6-.6-.6s-.6.268-.6.6c0 .331.269.6.6.6z" fill="#888788"/><path d="m332.47 42.5396c1.513 0 2.74-1.2268 2.74-2.74 0-1.5133-1.227-2.74-2.74-2.74s-2.74 1.2267-2.74 2.74c0 1.5132 1.227 2.74 2.74 2.74z" fill="#aeaeae"/><path d="m324.57 103c.878 0 1.59-.712 1.59-1.59s-.712-1.5897-1.59-1.5897-1.59.7117-1.59 1.5897.712 1.59 1.59 1.59z" fill="#333"/><path d="m484.24 138.76c.922 0 1.67-.748 1.67-1.67s-.748-1.67-1.67-1.67-1.67.748-1.67 1.67.748 1.67 1.67 1.67z" fill="#aeaeae"/><path d="m470.09 73.0203c.066 0 .12-.0538.12-.12 0-.0663-.054-.12-.12-.12s-.12.0537-.12.12c0 .0662.054.12.12.12z" fill="#aeaeae"/><path d="m479.59 96.1204c.475 0 .86-.385.86-.86s-.385-.86-.86-.86-.86.385-.86.86.385.86.86.86z" fill="#333"/><path d="m523.23 69.7801c.32 0 .58-.2596.58-.58 0-.3203-.26-.58-.58-.58s-.58.2597-.58.58c0 .3204.26.58.58.58z" fill="#aeaeae"/><path d="m519.81 126.95c.204 0 .37-.166.37-.37s-.166-.37-.37-.37-.37.166-.37.37.166.37.37.37z" fill="#333"/><path d="m618.76 106.78c.734 0 1.33-.595 1.33-1.33 0-.734-.596-1.33-1.33-1.33-.735 0-1.33.596-1.33 1.33 0 .735.595 1.33 1.33 1.33z" fill="#aeaeae"/><path d="m665.32 23.6201c.967 0 1.75-.7835 1.75-1.75s-.783-1.75-1.75-1.75c-.966 0-1.75.7835-1.75 1.75s.784 1.75 1.75 1.75z" fill="#333"/><path d="m762.48 56.6202c.668 0 1.21-.5417 1.21-1.21s-.542-1.21-1.21-1.21-1.21.5417-1.21 1.21.542 1.21 1.21 1.21z" fill="#aeaeae"/><path d="m767.57 132.37c1.596 0 2.89-1.294 2.89-2.89s-1.294-2.89-2.89-2.89-2.89 1.294-2.89 2.89 1.294 2.89 2.89 2.89z" fill="#aeaeae"/><path d="m775.32 68.7699c.453 0 .82-.3671.82-.82s-.367-.82-.82-.82-.82.3671-.82.82.367.82.82.82z" fill="#aeaeae"/><path d="m817.36 109.97c.464 0 .84-.376.84-.84s-.376-.84-.84-.84-.84.376-.84.84.376.84.84.84z" fill="#333"/><path d="m849.92 61.9803c1.977 0 3.58-1.6028 3.58-3.58s-1.603-3.58-3.58-3.58-3.58 1.6028-3.58 3.58 1.603 3.58 3.58 3.58z" fill="#aeaeae"/><path d="m925.72 63.1703c1.281 0 2.32-1.0387 2.32-2.32s-1.039-2.32-2.32-2.32-2.32 1.0387-2.32 2.32 1.039 2.32 2.32 2.32z" fill="#aeaeae"/><path d="m857.79 77.42c1.348 0 2.44-1.0924 2.44-2.44 0-1.3475-1.092-2.44-2.44-2.44-1.347 0-2.44 1.0925-2.44 2.44 0 1.3476 1.093 2.44 2.44 2.44z" fill="#aeaeae"/><path d="m937.27 129.26c.193 0 .35-.157.35-.35 0-.194-.157-.35-.35-.35s-.35.156-.35.35c0 .193.157.35.35.35z" fill="#aeaeae"/><path d="m1052.88 140.25c.02 0 .04-.018.04-.04s-.02-.04-.04-.04-.04.018-.04.04.02.04.04.04z" fill="#333"/><path d="m1048.08 182.3c.89 0 1.61-.721 1.61-1.61s-.72-1.61-1.61-1.61-1.61.721-1.61 1.61.72 1.61 1.61 1.61z" fill="#aeaeae"/><path d="m1133.71 168.07c.42 0 .76-.34.76-.76s-.34-.76-.76-.76-.76.34-.76.76.34.76.76.76z" fill="#aeaeae"/><path d="m1076.02 60.7599c.11 0 .19-.0851.19-.19s-.08-.19-.19-.19c-.1 0-.19.0851-.19.19s.09.19.19.19z" fill="#333"/><path d="m1093.96 51.7404c.09 0 .17-.0761.17-.17s-.08-.17-.17-.17-.17.0761-.17.17.08.17.17.17z" fill="#aeaeae"/><path d="m1225.62 121.16c1.25 0 2.26-1.012 2.26-2.26 0-1.249-1.01-2.26-2.26-2.26s-2.26 1.011-2.26 2.26c0 1.248 1.01 2.26 2.26 2.26z" fill="#333"/><path d="m61.68 75.9796c.0939 0 .17-.0761.17-.17s-.0761-.17-.17-.17-.17.0761-.17.17.0761.17.17.17z" fill="#aeaeae"/><path d="m155.51 155.12c.16 0 .29-.13.29-.29s-.13-.29-.29-.29-.29.13-.29.29.13.29.29.29z" fill="#aeaeae"/><path d="m148.59 196.16c.182 0 .33-.148.33-.33s-.148-.33-.33-.33-.33.148-.33.33.148.33.33.33z" fill="#333"/><path d="m211.99 142.9c1.983 0 3.59-1.608 3.59-3.59 0-1.983-1.607-3.59-3.59-3.59s-3.59 1.607-3.59 3.59c0 1.982 1.607 3.59 3.59 3.59z" fill="#333"/><path d="m254.62 194.22c1.966 0 3.56-1.594 3.56-3.56 0-1.967-1.594-3.56-3.56-3.56s-3.56 1.593-3.56 3.56c0 1.966 1.594 3.56 3.56 3.56z" fill="#aeaeae"/><path d="m265.82 102.98c.05 0 .09-.04.09-.09s-.04-.09-.09-.09-.09.04-.09.09.04.09.09.09z" fill="#333"/><path d="m260.24 198.17c.044 0 .08-.036.08-.08s-.036-.08-.08-.08-.08.036-.08.08.036.08.08.08z" fill="#aeaeae"/><path d="m406.79 210.93c1.226 0 2.22-.994 2.22-2.22s-.994-2.22-2.22-2.22-2.22.994-2.22 2.22.994 2.22 2.22 2.22z" fill="#aeaeae"/><path d="m453.65 121.99c1.06 0 1.92-.859 1.92-1.92 0-1.06-.86-1.92-1.92-1.92s-1.92.86-1.92 1.92c0 1.061.86 1.92 1.92 1.92z" fill="#aeaeae"/><path d="m403.13 196.27c.514 0 .93-.416.93-.93 0-.513-.416-.93-.93-.93s-.93.417-.93.93c0 .514.416.93.93.93z" fill="#333"/><path d="m470.35 65.7004c.9 0 1.63-.7297 1.63-1.63 0-.9002-.73-1.63-1.63-1.63s-1.63.7298-1.63 1.63c0 .9003.73 1.63 1.63 1.63z" fill="#aeaeae"/><path d="m515.44 58.7603c1.662 0 3.01-1.3477 3.01-3.0101 0-1.6623-1.348-3.01-3.01-3.01s-3.01 1.3477-3.01 3.01c0 1.6624 1.348 3.0101 3.01 3.0101z" fill="#aeaeae"/><path d="m511.33 159.84c.182 0 .33-.148.33-.33 0-.183-.148-.33-.33-.33s-.33.147-.33.33c0 .182.148.33.33.33z" fill="#aeaeae"/><path d="m570.94 192.97c.983 0 1.78-.797 1.78-1.78s-.797-1.78-1.78-1.78-1.78.797-1.78 1.78.797 1.78 1.78 1.78z" fill="#aeaeae"/><path d="m625.56 149.3c.077 0 .14-.063.14-.14 0-.078-.063-.14-.14-.14s-.14.062-.14.14c0 .077.063.14.14.14z" fill="#333"/><path d="m630.43 141.43c.762 0 1.38-.618 1.38-1.38s-.618-1.38-1.38-1.38-1.38.618-1.38 1.38.618 1.38 1.38 1.38z" fill="#aeaeae"/><path d="m703.23 155.58c.006 0 .01-.005.01-.01 0-.006-.004-.01-.01-.01s-.01.004-.01.01c0 .005.004.01.01.01z" fill="#aeaeae"/><path d="m797.6 82.1401c.155 0 .28-.1254.28-.28 0-.1547-.125-.28-.28-.28s-.28.1253-.28.28c0 .1546.125.28.28.28z" fill="#aeaeae"/><path d="m787.25 123.77c.734 0 1.33-.595 1.33-1.33 0-.734-.596-1.33-1.33-1.33-.735 0-1.33.596-1.33 1.33 0 .735.595 1.33 1.33 1.33z" fill="#aeaeae"/><path d="m856.88 117.99c1.033 0 1.87-.837 1.87-1.87s-.837-1.87-1.87-1.87-1.87.837-1.87 1.87.837 1.87 1.87 1.87z" fill="#333"/><path d="m821.43 231.38c.182 0 .33-.148.33-.33 0-.183-.148-.33-.33-.33s-.33.147-.33.33c0 .182.148.33.33.33z" fill="#333"/><path d="m817.86 217.14c.503 0 .91-.407.91-.91 0-.502-.407-.91-.91-.91s-.91.408-.91.91c0 .503.407.91.91.91z" fill="#aeaeae"/><path d="m913.07 93.6602c1.105 0 2-.8955 2-2 0-1.1046-.895-2-2-2s-2 .8954-2 2c0 1.1045.895 2 2 2z" fill="#aeaeae"/><path d="m994.06 158.73c.177 0 .32-.143.32-.32s-.143-.32-.32-.32-.32.143-.32.32.143.32.32.32z" fill="#aeaeae"/><path d="m1032.03 112.19c1.26 0 2.29-1.025 2.29-2.29 0-1.264-1.03-2.29-2.29-2.29s-2.29 1.026-2.29 2.29c0 1.265 1.03 2.29 2.29 2.29z" fill="#aeaeae"/><path d="m1028.37 227.61c1.12 0 2.03-.909 2.03-2.03s-.91-2.03-2.03-2.03-2.03.909-2.03 2.03.91 2.03 2.03 2.03z" fill="#333"/><path d="m1028.41 131.52c1.82 0 3.3-1.478 3.3-3.3 0-1.823-1.48-3.3-3.3-3.3s-3.3 1.477-3.3 3.3c0 1.822 1.48 3.3 3.3 3.3z" fill="#aeaeae"/><path d="m1098.85 87.1799c.5 0 .9-.403.9-.9 0-.4971-.4-.9-.9-.9s-.9.4029-.9.9c0 .497.4.9.9.9z" fill="#e74666"/><path d="m1164.61 142.65c.22 0 .4-.179.4-.4s-.18-.4-.4-.4-.4.179-.4.4.18.4.4.4z" fill="#aeaeae"/><path d="m1189.14 151.1c1.39 0 2.51-1.124 2.51-2.51s-1.12-2.51-2.51-2.51-2.51 1.124-2.51 2.51 1.12 2.51 2.51 2.51z" fill="#888788"/><path d="m48.0099 132.3c.602 0 1.09-.488 1.09-1.09s-.488-1.09-1.09-1.09-1.09.488-1.09 1.09.488 1.09 1.09 1.09z" fill="#aeaeae"/><path d="m209.34 129.06c.585 0 1.06-.474 1.06-1.06 0-.585-.475-1.06-1.06-1.06s-1.06.475-1.06 1.06c0 .586.475 1.06 1.06 1.06z" fill="#aeaeae"/><path d="m121.84 170.78c1.325 0 2.4-1.074 2.4-2.4 0-1.325-1.075-2.4-2.4-2.4-1.326 0-2.4 1.075-2.4 2.4 0 1.326 1.074 2.4 2.4 2.4z" fill="#333"/><path d="m127.14 197.23c1.016 0 1.84-.824 1.84-1.84s-.824-1.84-1.84-1.84-1.84.824-1.84 1.84.824 1.84 1.84 1.84z" fill="#aeaeae"/><path d="m269.16 197.36c.519 0 .94-.42.94-.94 0-.519-.421-.94-.94-.94s-.94.421-.94.94c0 .52.421.94.94.94z" fill="#2ca3f4"/><path d="m250.05 190.61c.431 0 .78-.349.78-.78s-.349-.78-.78-.78-.78.349-.78.78.349.78.78.78z" fill="#aeaeae"/><path d="m274.7 188.57c.425 0 .77-.344.77-.77 0-.425-.345-.77-.77-.77s-.77.345-.77.77c0 .426.345.77.77.77z" fill="#333"/><path d="m327.52 216.92c.204 0 .37-.166.37-.37 0-.205-.166-.37-.37-.37s-.37.165-.37.37c0 .204.166.37.37.37z" fill="#aeaeae"/><path d="m325.59 178.17c1.607 0 2.91-1.303 2.91-2.91 0-1.608-1.303-2.91-2.91-2.91s-2.91 1.302-2.91 2.91c0 1.607 1.303 2.91 2.91 2.91z" fill="#aeaeae"/><path d="m455.85 115.53c.364 0 .66-.296.66-.66 0-.365-.296-.66-.66-.66-.365 0-.66.295-.66.66 0 .364.295.66.66.66z" fill="#aeaeae"/><path d="m514.38 220.86c1.502 0 2.72-1.218 2.72-2.72s-1.218-2.72-2.72-2.72-2.72 1.218-2.72 2.72 1.218 2.72 2.72 2.72z" fill="#aeaeae"/><path d="m495.53 163.2c.646 0 1.17-.523 1.17-1.17 0-.646-.524-1.17-1.17-1.17s-1.17.524-1.17 1.17c0 .647.524 1.17 1.17 1.17z" fill="#aeaeae"/><path d="m562.74 144.49c.359 0 .65-.291.65-.65s-.291-.65-.65-.65-.65.291-.65.65.291.65.65.65z" fill="#333"/><path d="m591.14 252.54c.199 0 .36-.161.36-.36s-.161-.36-.36-.36-.36.161-.36.36.161.36.36.36z" fill="#aeaeae"/><path d="m647.5 164.68c.265 0 .48-.215.48-.48s-.215-.48-.48-.48-.48.215-.48.48.215.48.48.48z" fill="#888788"/><path d="m735.7 151.95c.961 0 1.74-.779 1.74-1.74s-.779-1.74-1.74-1.74-1.74.779-1.74 1.74.779 1.74 1.74 1.74z" fill="#aeaeae"/><path d="m683.3 168.17c.685 0 1.24-.555 1.24-1.24 0-.684-.555-1.24-1.24-1.24s-1.24.556-1.24 1.24c0 .685.555 1.24 1.24 1.24z" fill="#333"/><path d="m751.48 122.3c.867 0 1.57-.703 1.57-1.57s-.703-1.57-1.57-1.57-1.57.703-1.57 1.57.703 1.57 1.57 1.57z" fill="#aeaeae"/><path d="m707.69 184.25c1.254 0 2.27-1.016 2.27-2.27s-1.016-2.27-2.27-2.27-2.27 1.016-2.27 2.27 1.016 2.27 2.27 2.27z" fill="#aeaeae"/><path d="m785.45 231.93c.011 0 .02-.009.02-.02s-.009-.02-.02-.02-.02.009-.02.02.009.02.02.02z" fill="#888788"/><path d="m898.74 123.86c.481 0 .87-.389.87-.87 0-.48-.389-.87-.87-.87-.48 0-.87.39-.87.87 0 .481.39.87.87.87z" fill="#aeaeae"/><path d="m849.06 134.83c.226 0 .41-.184.41-.41 0-.227-.184-.41-.41-.41-.227 0-.41.183-.41.41 0 .226.183.41.41.41z" fill="#aeaeae"/><path d="m833.1 204.45c.447 0 .81-.363.81-.81s-.363-.81-.81-.81-.81.363-.81.81.363.81.81.81z" fill="#aeaeae"/><path d="m970.63 118.14c1.541 0 2.79-1.25 2.79-2.79 0-1.541-1.249-2.79-2.79-2.79s-2.79 1.249-2.79 2.79c0 1.54 1.249 2.79 2.79 2.79z" fill="#aeaeae"/><path d="m924.73 129.53c.221 0 .4-.179.4-.4 0-.22-.179-.4-.4-.4s-.4.18-.4.4c0 .221.179.4.4.4z" fill="#888788"/><path d="m980.2 129.41c1.287 0 2.33-1.043 2.33-2.33s-1.043-2.33-2.33-2.33-2.33 1.043-2.33 2.33 1.043 2.33 2.33 2.33z" fill="#333"/><path d="m1143.88 162.85c.19 0 .34-.152.34-.34s-.15-.34-.34-.34-.34.152-.34.34.15.34.34.34z" fill="#aeaeae"/><path d="m1200.92 194.74c1.96 0 3.54-1.585 3.54-3.54s-1.58-3.54-3.54-3.54-3.54 1.585-3.54 3.54 1.58 3.54 3.54 3.54z" fill="#aeaeae"/><path d="m1132.76 167.63c.82 0 1.48-.663 1.48-1.48s-.66-1.48-1.48-1.48-1.48.663-1.48 1.48.66 1.48 1.48 1.48z" fill="#aeaeae"/><path d="m1204.85 179.29c1.03 0 1.86-.832 1.86-1.86 0-1.027-.83-1.86-1.86-1.86s-1.86.833-1.86 1.86c0 1.028.83 1.86 1.86 1.86z" fill="#333"/><path d="m73.74 257.77c.3811 0 .69-.309.69-.69s-.3089-.69-.69-.69c-.381 0-.69.309-.69.69s.309.69.69.69z" fill="#aeaeae"/><path d="m85.45 196.76c.138 0 .25-.112.25-.25s-.112-.25-.25-.25c-.1381 0-.25.112-.25.25s.1119.25.25.25z" fill="#aeaeae"/><path d="m195.63 245.38c1.596 0 2.89-1.294 2.89-2.89s-1.294-2.89-2.89-2.89-2.89 1.294-2.89 2.89 1.294 2.89 2.89 2.89z" fill="#aeaeae"/><path d="m172.15 173.64c.276 0 .5-.224.5-.5s-.224-.5-.5-.5-.5.224-.5.5.224.5.5.5z" fill="#333"/><path d="m235.22 220.37c.177 0 .32-.143.32-.32 0-.176-.143-.32-.32-.32s-.32.144-.32.32c0 .177.143.32.32.32z" fill="#aeaeae"/><path d="m210.09 186.11c1.265 0 2.29-1.025 2.29-2.29 0-1.264-1.025-2.29-2.29-2.29s-2.29 1.026-2.29 2.29c0 1.265 1.025 2.29 2.29 2.29z" fill="#333"/><path d="m266.66 164.35c.569 0 1.03-.461 1.03-1.03s-.461-1.03-1.03-1.03-1.03.461-1.03 1.03.461 1.03 1.03 1.03z" fill="#aeaeae"/><path d="m299.71 180.37c.304 0 .55-.247.55-.55 0-.304-.246-.55-.55-.55s-.55.246-.55.55c0 .303.246.55.55.55z" fill="#333"/><path d="m393.57 277.46c.116 0 .21-.094.21-.21s-.094-.21-.21-.21-.21.094-.21.21.094.21.21.21z" fill="#aeaeae"/><path d="m405.22 282.32c1.259 0 2.28-1.021 2.28-2.28s-1.021-2.28-2.28-2.28-2.28 1.021-2.28 2.28 1.021 2.28 2.28 2.28z" fill="#aeaeae"/><path d="m423.67 190.49c.574 0 1.04-.465 1.04-1.04 0-.574-.466-1.04-1.04-1.04s-1.04.466-1.04 1.04c0 .575.466 1.04 1.04 1.04z" fill="#2ca3f4"/><path d="m531.43 201.56c.889 0 1.61-.721 1.61-1.61s-.721-1.61-1.61-1.61-1.61.721-1.61 1.61.721 1.61 1.61 1.61z" fill="#333"/><path d="m547.95 217.88c.652 0 1.18-.529 1.18-1.18 0-.652-.528-1.18-1.18-1.18s-1.18.528-1.18 1.18c0 .651.528 1.18 1.18 1.18z" fill="#aeaeae"/><path d="m631.09 257.91c1.331 0 2.41-1.079 2.41-2.41s-1.079-2.41-2.41-2.41-2.41 1.079-2.41 2.41 1.079 2.41 2.41 2.41z" fill="#333"/><path d="m574.17 306.99c.359 0 .65-.291.65-.65s-.291-.65-.65-.65-.65.291-.65.65.291.65.65.65z" fill="#aeaeae"/><path d="m634.79 241.99c.011 0 .02-.009.02-.02s-.009-.02-.02-.02-.02.009-.02.02.009.02.02.02z" fill="#2ca3f4"/><path d="m655.06 253.82c.674 0 1.22-.546 1.22-1.22s-.546-1.22-1.22-1.22-1.22.546-1.22 1.22.546 1.22 1.22 1.22z" fill="#aeaeae"/><path d="m701.29 188.08c.066 0 .12-.054.12-.12s-.054-.12-.12-.12-.12.054-.12.12.054.12.12.12z" fill="#888788"/><path d="m766.9 188.85c.398 0 .72-.322.72-.72 0-.397-.322-.72-.72-.72s-.72.323-.72.72c0 .398.322.72.72.72z" fill="#aeaeae"/><path d="m806.41 286.31c1.143 0 2.07-.927 2.07-2.07s-.927-2.07-2.07-2.07-2.07.927-2.07 2.07.927 2.07 2.07 2.07z" fill="#aeaeae"/><path d="m800.6 251.02c.392 0 .71-.318.71-.71s-.318-.71-.71-.71-.71.318-.71.71.318.71.71.71z" fill="#aeaeae"/><path d="m846.34 287.86c.122 0 .22-.099.22-.22 0-.122-.098-.22-.22-.22-.121 0-.22.098-.22.22 0 .121.099.22.22.22z" fill="#333"/><path d="m873.36 225.68c1.657 0 3-1.343 3-3s-1.343-3-3-3-3 1.343-3 3 1.343 3 3 3z" fill="#aeaeae"/><path d="m961.54 203.64c2.01 0 3.64-1.629 3.64-3.64 0-2.01-1.63-3.64-3.64-3.64s-3.64 1.63-3.64 3.64c0 2.011 1.63 3.64 3.64 3.64z" fill="#aeaeae"/><path d="m978.76 254.61c1.8 0 3.26-1.46 3.26-3.26 0-1.801-1.46-3.26-3.26-3.26s-3.26 1.459-3.26 3.26c0 1.8 1.46 3.26 3.26 3.26z" fill="#aeaeae"/><path d="m1003.1 222.22c.06 0 .11-.049.11-.11s-.05-.11-.11-.11-.11.049-.11.11.05.11.11.11z" fill="#333"/><path d="m1053.35 237.11c.36 0 .66-.295.66-.66 0-.364-.3-.66-.66-.66s-.66.296-.66.66c0 .365.3.66.66.66z" fill="#aeaeae"/><path d="m1101.57 284.12c.91 0 1.64-.734 1.64-1.64s-.73-1.64-1.64-1.64-1.64.734-1.64 1.64.73 1.64 1.64 1.64z" fill="#aeaeae"/><path d="m1165.77 202.13c2.04 0 3.69-1.652 3.69-3.69s-1.65-3.69-3.69-3.69-3.69 1.652-3.69 3.69 1.65 3.69 3.69 3.69z" fill="#aeaeae"/><path d="m1182.34 241.6c.1 0 .19-.085.19-.19s-.09-.19-.19-.19c-.11 0-.19.085-.19.19s.08.19.19.19z" fill="#aeaeae"/><path d="m86.44 262.58c2.1981 0 3.98-1.782 3.98-3.98s-1.7819-3.98-3.98-3.98-3.98 1.782-3.98 3.98 1.7819 3.98 3.98 3.98z" fill="#333"/><path d="m37.5701 309.75c.5467 0 .99-.444.99-.99 0-.547-.4433-.99-.99-.99-.5468 0-.99.443-.99.99 0 .546.4432.99.99.99z" fill="#aeaeae"/><path d="m141.4 299.72c.155 0 .28-.125.28-.28 0-.154-.125-.28-.28-.28s-.28.126-.28.28c0 .155.125.28.28.28z" fill="#aeaeae"/><path d="m290.27 345.55c1.966 0 3.56-1.594 3.56-3.56s-1.594-3.56-3.56-3.56-3.56 1.594-3.56 3.56 1.594 3.56 3.56 3.56z" fill="#aeaeae"/><path d="m257.3 290.64c.342 0 .62-.277.62-.62 0-.342-.278-.62-.62-.62s-.62.278-.62.62c0 .343.278.62.62.62z" fill="#aeaeae"/><path d="m275.56 309.01c.05 0 .09-.04.09-.09s-.04-.09-.09-.09-.09.04-.09.09.04.09.09.09z" fill="#aeaeae"/><path d="m374.26 297.18c.414 0 .75-.336.75-.75 0-.415-.336-.75-.75-.75s-.75.335-.75.75c0 .414.336.75.75.75z" fill="#aeaeae"/><path d="m327.78 236.05c.166 0 .3-.134.3-.3s-.134-.3-.3-.3-.3.134-.3.3.134.3.3.3z" fill="#aeaeae"/><path d="m407.53 263.56c.757 0 1.37-.613 1.37-1.37 0-.756-.613-1.37-1.37-1.37s-1.37.614-1.37 1.37c0 .757.613 1.37 1.37 1.37z" fill="#aeaeae"/><path d="m382.38 225.92c.563 0 1.02-.457 1.02-1.02s-.457-1.02-1.02-1.02-1.02.457-1.02 1.02.457 1.02 1.02 1.02z" fill="#aeaeae"/><path d="m485.63 225.54c.508 0 .92-.412.92-.92s-.412-.92-.92-.92-.92.412-.92.92.412.92.92.92z" fill="#aeaeae"/><path d="m422.34 310.23c.696 0 1.26-.564 1.26-1.26s-.564-1.26-1.26-1.26-1.26.564-1.26 1.26.564 1.26 1.26 1.26z" fill="#333"/><path d="m526.94 207.93c.9 0 1.63-.73 1.63-1.63s-.73-1.63-1.63-1.63-1.63.73-1.63 1.63.73 1.63 1.63 1.63z" fill="#aeaeae"/><path d="m556.95 280.07c.271 0 .49-.22.49-.49 0-.271-.219-.49-.49-.49s-.49.219-.49.49c0 .27.219.49.49.49z" fill="#2ca3f4"/><path d="m624.78 284.09c1.486 0 2.69-1.204 2.69-2.69s-1.204-2.69-2.69-2.69-2.69 1.204-2.69 2.69 1.204 2.69 2.69 2.69z" fill="#e74666"/><path d="m733.25 292.48c.618 0 1.12-.501 1.12-1.12 0-.618-.502-1.12-1.12-1.12-.619 0-1.12.502-1.12 1.12 0 .619.501 1.12 1.12 1.12z" fill="#aeaeae"/><path d="m673.07 217.75c.309 0 .56-.251.56-.56s-.251-.56-.56-.56-.56.251-.56.56.251.56.56.56z" fill="#333"/><path d="m667.82 243.32c1.408 0 2.55-1.142 2.55-2.55 0-1.409-1.142-2.55-2.55-2.55s-2.55 1.141-2.55 2.55c0 1.408 1.142 2.55 2.55 2.55z" fill="#333"/><path d="m800.44 291.6c.696 0 1.26-.564 1.26-1.26s-.564-1.26-1.26-1.26-1.26.564-1.26 1.26.564 1.26 1.26 1.26z" fill="#aeaeae"/><path d="m783.18 220.85c.431 0 .78-.349.78-.78s-.349-.78-.78-.78-.78.349-.78.78.349.78.78.78z" fill="#aeaeae"/><path d="m848.77 281.09c1.486 0 2.69-1.204 2.69-2.69s-1.204-2.69-2.69-2.69-2.69 1.204-2.69 2.69 1.204 2.69 2.69 2.69z" fill="#aeaeae"/><path d="m914.65 248.11c1.055 0 1.91-.855 1.91-1.91s-.855-1.91-1.91-1.91-1.91.855-1.91 1.91.855 1.91 1.91 1.91z" fill="#aeaeae"/><path d="m954.37 226.39c.121 0 .22-.098.22-.22 0-.121-.099-.22-.22-.22-.122 0-.22.099-.22.22 0 .122.098.22.22.22z" fill="#aeaeae"/><path d="m1001.69 266.12c.81 0 1.46-.654 1.46-1.46s-.65-1.46-1.46-1.46-1.46.654-1.46 1.46.65 1.46 1.46 1.46z" fill="#aeaeae"/><path d="m977.58 288.17c.58 0 1.05-.47 1.05-1.05s-.47-1.05-1.05-1.05-1.05.47-1.05 1.05.47 1.05 1.05 1.05z" fill="#333"/><path d="m1117.78 328.69c.1 0 .19-.085.19-.19s-.09-.19-.19-.19c-.11 0-.19.085-.19.19s.08.19.19.19z" fill="#aeaeae"/><path d="m1034.85 239.83c.02 0 .03-.014.03-.031 0-.016-.01-.029-.03-.029s-.03.013-.03.029c0 .017.01.031.03.031z" fill="#aeaeae"/><path d="m1132.73 253.54c.78 0 1.42-.636 1.42-1.42s-.64-1.42-1.42-1.42-1.42.636-1.42 1.42.64 1.42 1.42 1.42z" fill="#aeaeae"/><path d="m1075.36 179.69c.25 0 .46-.206.46-.46s-.21-.46-.46-.46-.46.206-.46.46.21.46.46.46z" fill="#aeaeae"/><path d="m1183.62 242.75c1.38 0 2.5-1.119 2.5-2.5s-1.12-2.5-2.5-2.5-2.5 1.119-2.5 2.5 1.12 2.5 2.5 2.5z" fill="#aeaeae"/><path d="m112.21 223.33c.569 0 1.03-.462 1.03-1.031 0-.568-.461-1.029-1.03-1.029s-1.03.461-1.03 1.029c0 .569.461 1.031 1.03 1.031z" fill="#aeaeae"/><path d="m36.1601 333.66c1.5685 0 2.84-1.271 2.84-2.84 0-1.568-1.2715-2.84-2.84-2.84s-2.84 1.272-2.84 2.84c0 1.569 1.2715 2.84 2.84 2.84z" fill="#aeaeae"/><path d="m169.75 295.46c1.221 0 2.21-.989 2.21-2.21 0-1.22-.989-2.21-2.21-2.21s-2.21.99-2.21 2.21c0 1.221.989 2.21 2.21 2.21z" fill="#aeaeae"/><path d="m220.34 318.27c.193 0 .35-.156.35-.35 0-.193-.157-.35-.35-.35s-.35.157-.35.35c0 .194.157.35.35.35z" fill="#aeaeae"/><path d="m186.1 377.3c1.845 0 3.34-1.495 3.34-3.34 0-1.844-1.495-3.34-3.34-3.34s-3.34 1.496-3.34 3.34c0 1.845 1.495 3.34 3.34 3.34z" fill="#aeaeae"/><path d="m279.09 340.56c.508 0 .92-.412.92-.92s-.412-.92-.92-.92-.92.412-.92.92.412.92.92.92z" fill="#e74666"/><path d="m303.48 341.7c1.254 0 2.27-1.016 2.27-2.27s-1.016-2.27-2.27-2.27-2.27 1.016-2.27 2.27 1.016 2.27 2.27 2.27z" fill="#aeaeae"/><path d="m345 252.09c.618 0 1.12-.502 1.12-1.12 0-.619-.502-1.12-1.12-1.12-.619 0-1.12.501-1.12 1.12 0 .618.501 1.12 1.12 1.12z" fill="#aeaeae"/><path d="m413.38 263.93c.414 0 .75-.336.75-.75 0-.415-.336-.75-.75-.75s-.75.335-.75.75c0 .414.336.75.75.75z" fill="#aeaeae"/><path d="m403.65 266.96c.094 0 .17-.076.17-.17s-.076-.17-.17-.17-.17.076-.17.17.076.17.17.17z" fill="#aeaeae"/><path d="m468.21 261.57c1.624 0 2.94-1.316 2.94-2.94 0-1.623-1.316-2.94-2.94-2.94s-2.94 1.317-2.94 2.94c0 1.624 1.316 2.94 2.94 2.94z" fill="#aeaeae"/><path d="m519.52 341.52c.447 0 .81-.362.81-.81 0-.447-.363-.81-.81-.81s-.81.363-.81.81c0 .448.363.81.81.81z" fill="#aeaeae"/><path d="m621.35 296.82c.701 0 1.27-.568 1.27-1.27 0-.701-.569-1.27-1.27-1.27s-1.27.569-1.27 1.27c0 .702.569 1.27 1.27 1.27z" fill="#333"/><path d="m596.32 220.18c.668 0 1.21-.542 1.21-1.21 0-.669-.542-1.21-1.21-1.21s-1.21.541-1.21 1.21c0 .668.542 1.21 1.21 1.21z" fill="#2ca3f4"/><path d="m607.81 293.64c1.226 0 2.22-.994 2.22-2.22s-.994-2.22-2.22-2.22-2.22.994-2.22 2.22.994 2.22 2.22 2.22z" fill="#aeaeae"/><path d="m651.88 270.47c.597 0 1.08-.484 1.08-1.08 0-.597-.483-1.08-1.08-1.08-.596 0-1.08.483-1.08 1.08 0 .596.484 1.08 1.08 1.08z" fill="#aeaeae"/><path d="m717.31 279.69c1.011 0 1.83-.819 1.83-1.83 0-1.01-.819-1.83-1.83-1.83s-1.83.82-1.83 1.83c0 1.011.819 1.83 1.83 1.83z" fill="#aeaeae"/><path d="m725.46 285.3c.028 0 .05-.022.05-.05 0-.027-.022-.05-.05-.05s-.05.023-.05.05c0 .028.022.05.05.05z" fill="#aeaeae"/><path d="m733.89 342.64c.337 0 .61-.273.61-.61s-.273-.61-.61-.61-.61.273-.61.61.273.61.61.61z" fill="#aeaeae"/><path d="m809.67 265.94c.961 0 1.74-.779 1.74-1.74s-.779-1.74-1.74-1.74-1.74.779-1.74 1.74.779 1.74 1.74 1.74z" fill="#333"/><path d="m860.07 345.58c1.403 0 2.54-1.137 2.54-2.54s-1.137-2.54-2.54-2.54-2.54 1.137-2.54 2.54 1.137 2.54 2.54 2.54z" fill="#aeaeae"/><path d="m806.79 262.67c.282 0 .51-.228.51-.51 0-.281-.228-.51-.51-.51s-.51.229-.51.51c0 .282.228.51.51.51z" fill="#888788"/><path d="m999.36 303.46c.061 0 .11-.049.11-.11s-.049-.11-.11-.11-.11.049-.11.11.049.11.11.11z" fill="#333"/><path d="m999.65 224.12c1.04 0 1.88-.841 1.88-1.88 0-1.038-.84-1.88-1.88-1.88-1.038 0-1.88.842-1.88 1.88 0 1.039.842 1.88 1.88 1.88z" fill="#aeaeae"/><path d="m945.46 276.27c.591 0 1.07-.479 1.07-1.07s-.479-1.07-1.07-1.07-1.07.479-1.07 1.07.479 1.07 1.07 1.07z" fill="#aeaeae"/><path d="m1076.95 281.34c1.5 0 2.71-1.213 2.71-2.71s-1.21-2.71-2.71-2.71-2.71 1.213-2.71 2.71 1.21 2.71 2.71 2.71z" fill="#333"/><path d="m1085.83 283.7c.96 0 1.74-.779 1.74-1.74s-.78-1.74-1.74-1.74-1.74.779-1.74 1.74.78 1.74 1.74 1.74z" fill="#aeaeae"/><path d="m1143.18 336.01c.27 0 .48-.215.48-.48s-.21-.48-.48-.48-.48.215-.48.48.21.48.48.48z" fill="#aeaeae"/><path d="m1169.8 238.4c2.09 0 3.78-1.693 3.78-3.78 0-2.088-1.69-3.78-3.78-3.78s-3.78 1.692-3.78 3.78c0 2.087 1.69 3.78 3.78 3.78z" fill="#aeaeae"/><path d="m1184.93 222.13c.61 0 1.11-.497 1.11-1.11s-.5-1.11-1.11-1.11-1.11.497-1.11 1.11.5 1.11 1.11 1.11z" fill="#aeaeae"/><path d="m103.27 264.47c1.314 0 2.38-1.066 2.38-2.38s-1.066-2.38-2.38-2.38c-1.315 0-2.38 1.066-2.38 2.38s1.065 2.38 2.38 2.38z" fill="#aeaeae"/><path d="m191.84 358.28c1.823 0 3.3-1.478 3.3-3.3 0-1.823-1.477-3.3-3.3-3.3-1.822 0-3.3 1.477-3.3 3.3 0 1.822 1.478 3.3 3.3 3.3z" fill="#aeaeae"/><path d="m165.5 324.52c1.535 0 2.78-1.245 2.78-2.78s-1.245-2.78-2.78-2.78-2.78 1.245-2.78 2.78 1.245 2.78 2.78 2.78z" fill="#333"/><path d="m189.69 297.86c.431 0 .78-.349.78-.78s-.349-.78-.78-.78-.78.349-.78.78.349.78.78.78z" fill="#333"/><path d="m201.19 275.78c.602 0 1.09-.488 1.09-1.09s-.488-1.09-1.09-1.09-1.09.488-1.09 1.09.488 1.09 1.09 1.09z" fill="#333"/><path d="m326.64 361.7c1.198 0 2.17-.971 2.17-2.17 0-1.198-.972-2.17-2.17-2.17s-2.17.972-2.17 2.17c0 1.199.972 2.17 2.17 2.17z" fill="#aeaeae"/><path d="m278.28 348.36c1.171 0 2.12-.949 2.12-2.12s-.949-2.12-2.12-2.12-2.12.949-2.12 2.12.949 2.12 2.12 2.12z" fill="#2ca3f4"/><path d="m367.35 306.91c1.016 0 1.84-.823 1.84-1.84 0-1.016-.824-1.84-1.84-1.84s-1.84.824-1.84 1.84c0 1.017.824 1.84 1.84 1.84z" fill="#333"/><path d="m404.6 359.03c1.491 0 2.7-1.209 2.7-2.7s-1.209-2.7-2.7-2.7-2.7 1.209-2.7 2.7 1.209 2.7 2.7 2.7z" fill="#333"/><path d="m401.91 316.06c.635 0 1.15-.515 1.15-1.15s-.515-1.15-1.15-1.15-1.15.515-1.15 1.15.515 1.15 1.15 1.15z" fill="#aeaeae"/><path d="m521.04 288.6c1.497 0 2.71-1.214 2.71-2.71 0-1.497-1.213-2.71-2.71-2.71s-2.71 1.213-2.71 2.71c0 1.496 1.213 2.71 2.71 2.71z" fill="#aeaeae"/><path d="m557.15 293.62c.574 0 1.04-.466 1.04-1.04s-.466-1.04-1.04-1.04-1.04.466-1.04 1.04.466 1.04 1.04 1.04z" fill="#333"/><path d="m519.13 318.33c.033 0 .06-.027.06-.06s-.027-.06-.06-.06-.06.027-.06.06.027.06.06.06z" fill="#aeaeae"/><path d="m536.55 343.76c.497 0 .9-.403.9-.9s-.403-.9-.9-.9-.9.403-.9.9.403.9.9.9z" fill="#2ca3f4"/><path d="m577.15 256.96c.718 0 1.3-.582 1.3-1.3s-.582-1.3-1.3-1.3-1.3.582-1.3 1.3.582 1.3 1.3 1.3z" fill="#aeaeae"/><path d="m654.61 325.77c.055 0 .1-.044.1-.1 0-.055-.045-.1-.1-.1s-.1.045-.1.1c0 .056.045.1.1.1z" fill="#2ca3f4"/><path d="m736.73 311.01c.309 0 .56-.251.56-.56 0-.31-.251-.56-.56-.56s-.56.25-.56.56c0 .309.251.56.56.56z" fill="#aeaeae"/><path d="m739.63 285.58c.32 0 .58-.26.58-.58s-.26-.58-.58-.58-.58.26-.58.58.26.58.58.58z" fill="#aeaeae"/><path d="m797.98 272.33c.348 0 .63-.282.63-.63s-.282-.63-.63-.63-.63.282-.63.63.282.63.63.63z" fill="#aeaeae"/><path d="m825.15 352.87c.039 0 .07-.031.07-.07 0-.038-.031-.07-.07-.07s-.07.032-.07.07c0 .039.031.07.07.07z" fill="#aeaeae"/><path d="m827.07 346.89c.226 0 .41-.183.41-.41 0-.226-.184-.41-.41-.41s-.41.184-.41.41c0 .227.184.41.41.41z" fill="#aeaeae"/><path d="m885.78 328.57c.381 0 .69-.308.69-.69 0-.381-.309-.69-.69-.69s-.69.309-.69.69c0 .382.309.69.69.69z" fill="#333"/><path d="m904.4 378.04c.95 0 1.72-.77 1.72-1.72s-.77-1.72-1.72-1.72-1.72.77-1.72 1.72.77 1.72 1.72 1.72z" fill="#aeaeae"/><path d="m989.57 330.69c.458 0 .83-.371.83-.83 0-.458-.372-.83-.83-.83s-.83.372-.83.83c0 .459.372.83.83.83z" fill="#aeaeae"/><path d="m995.11 329.92c.724 0 1.31-.587 1.31-1.31 0-.724-.586-1.31-1.31-1.31-.723 0-1.31.586-1.31 1.31 0 .723.587 1.31 1.31 1.31z" fill="#333"/><path d="m1082.83 328.69c.39 0 .7-.313.7-.7s-.31-.7-.7-.7-.7.313-.7.7.31.7.7.7z" fill="#333"/><path d="m1040.29 363.44c.24 0 .43-.192.43-.43 0-.237-.19-.43-.43-.43s-.43.193-.43.43c0 .238.19.43.43.43z" fill="#aeaeae"/><path d="m1093.54 346.62c.81 0 1.47-.658 1.47-1.47s-.66-1.47-1.47-1.47-1.47.658-1.47 1.47.66 1.47 1.47 1.47z" fill="#aeaeae"/><path d="m1170.54 374.03c.67 0 1.21-.541 1.21-1.21 0-.668-.54-1.21-1.21-1.21s-1.21.542-1.21 1.21c0 .669.54 1.21 1.21 1.21z" fill="#aeaeae"/><path d="m1255.2 337.1c.22 0 .39-.174.39-.39 0-.215-.17-.39-.39-.39s-.39.175-.39.39c0 .216.17.39.39.39z" fill="#aeaeae"/><path d="m6.12002 340.5c.05523 0 .1-.045.1-.1s-.04477-.1-.1-.1-.1.045-.1.1.04477.1.1.1z" fill="#aeaeae"/><path d="m125.22 285.18c.983 0 1.78-.797 1.78-1.78s-.797-1.78-1.78-1.78-1.78.797-1.78 1.78.797 1.78 1.78 1.78z" fill="#aeaeae"/><path d="m123.37 372.97c.16 0 .29-.13.29-.29 0-.161-.13-.29-.29-.29s-.29.129-.29.29c0 .16.13.29.29.29z" fill="#aeaeae"/><path d="m259.54 364.37c.011 0 .02-.009.02-.02s-.009-.02-.02-.02-.02.009-.02.02.009.02.02.02z" fill="#888788"/><path d="m242.16 402.83c.795 0 1.44-.645 1.44-1.44s-.645-1.44-1.44-1.44-1.44.645-1.44 1.44.645 1.44 1.44 1.44z" fill="#333"/><path d="m314.4 295.32c.282 0 .51-.229.51-.51 0-.282-.228-.51-.51-.51s-.51.228-.51.51c0 .281.228.51.51.51z" fill="#aeaeae"/><path d="m349.22 371.09c1.403 0 2.54-1.137 2.54-2.54s-1.137-2.54-2.54-2.54-2.54 1.137-2.54 2.54 1.137 2.54 2.54 2.54z" fill="#aeaeae"/><path d="m377.91 350.09c.497 0 .9-.403.9-.9s-.403-.9-.9-.9-.9.403-.9.9.403.9.9.9z" fill="#333"/><path d="m390.36 384.3c1.314 0 2.38-1.066 2.38-2.38s-1.066-2.38-2.38-2.38-2.38 1.066-2.38 2.38 1.066 2.38 2.38 2.38z" fill="#aeaeae"/><path d="m380.49 356.2c1.259 0 2.28-1.021 2.28-2.28 0-1.26-1.021-2.28-2.28-2.28s-2.28 1.02-2.28 2.28c0 1.259 1.021 2.28 2.28 2.28z" fill="#aeaeae"/><path d="m533.09 306.67c.171 0 .31-.139.31-.31s-.139-.31-.31-.31-.31.139-.31.31.139.31.31.31z" fill="#aeaeae"/><path d="m467.72 416.63c.138 0 .25-.112.25-.25s-.112-.25-.25-.25-.25.112-.25.25.112.25.25.25z" fill="#aeaeae"/><path d="m571.66 434.73c2.496 0 4.52-2.023 4.52-4.52 0-2.496-2.024-4.52-4.52-4.52s-4.52 2.024-4.52 4.52c0 2.497 2.024 4.52 4.52 4.52z" fill="#aeaeae"/><path d="m515.7 429.84c.602 0 1.09-.488 1.09-1.09s-.488-1.09-1.09-1.09-1.09.488-1.09 1.09.488 1.09 1.09 1.09z" fill="#2ca3f4"/><path d="m630.73 406.78c.016 0 .03-.014.03-.03 0-.017-.014-.03-.03-.03-.017 0-.03.013-.03.03 0 .016.013.03.03.03z" fill="#aeaeae"/><path d="m650.93 447.89c.497 0 .9-.403.9-.9s-.403-.9-.9-.9-.9.403-.9.9.403.9.9.9z" fill="#333"/><path d="m717.47 371.67c.608 0 1.1-.493 1.1-1.1 0-.608-.492-1.1-1.1-1.1-.607 0-1.1.492-1.1 1.1 0 .607.493 1.1 1.1 1.1z" fill="#aeaeae"/><path d="m716.63 347.79c1.712 0 3.1-1.388 3.1-3.1s-1.388-3.1-3.1-3.1-3.1 1.388-3.1 3.1 1.388 3.1 3.1 3.1z" fill="#333"/><path d="m690.13 330.72c.939 0 1.7-.761 1.7-1.7s-.761-1.7-1.7-1.7-1.7.761-1.7 1.7.761 1.7 1.7 1.7z" fill="#aeaeae"/><path d="m841.64 445.66c2.005 0 3.63-1.625 3.63-3.63 0-2.004-1.625-3.63-3.63-3.63s-3.63 1.626-3.63 3.63c0 2.005 1.625 3.63 3.63 3.63z" fill="#2ca3f4"/><path d="m839.22 332.11c1.972 0 3.57-1.599 3.57-3.57 0-1.972-1.598-3.57-3.57-3.57s-3.57 1.598-3.57 3.57c0 1.971 1.598 3.57 3.57 3.57z" fill="#aeaeae"/><path d="m857.75 411.64c1.116 0 2.02-.905 2.02-2.02 0-1.116-.904-2.02-2.02-2.02s-2.02.904-2.02 2.02c0 1.115.904 2.02 2.02 2.02z" fill="#333"/><path d="m925.04 296.62c.254 0 .46-.206.46-.46s-.206-.46-.46-.46-.46.206-.46.46.206.46.46.46z" fill="#e74666"/><path d="m917.59 349.03c.878 0 1.59-.712 1.59-1.59s-.712-1.59-1.59-1.59-1.59.712-1.59 1.59.712 1.59 1.59 1.59z" fill="#888788"/><path d="m1003.85 458.68c1.59 0 2.87-1.285 2.87-2.87s-1.28-2.87-2.87-2.87-2.87 1.285-2.87 2.87 1.28 2.87 2.87 2.87z" fill="#aeaeae"/><path d="m1058.93 339.14c.2 0 .37-.165.37-.37 0-.204-.17-.37-.37-.37s-.37.166-.37.37c0 .205.17.37.37.37z" fill="#333"/><path d="m1102.46 323.49c2.03 0 3.68-1.648 3.68-3.68 0-2.033-1.65-3.68-3.68-3.68s-3.68 1.647-3.68 3.68c0 2.032 1.65 3.68 3.68 3.68z" fill="#333"/><path d="m1087.63 380.94c1.03 0 1.87-.837 1.87-1.87s-.84-1.87-1.87-1.87-1.87.837-1.87 1.87.84 1.87 1.87 1.87z" fill="#aeaeae"/><path d="m1211.32 457.68c1.35 0 2.44-1.093 2.44-2.44 0-1.348-1.09-2.44-2.44-2.44s-2.44 1.092-2.44 2.44c0 1.347 1.09 2.44 2.44 2.44z" fill="#aeaeae"/><path d="m1170.92 381.79c1.07 0 1.93-.864 1.93-1.93s-.86-1.93-1.93-1.93-1.93.864-1.93 1.93.86 1.93 1.93 1.93z" fill="#aeaeae"/><path d="m148.21 364.34c.028 0 .05-.022.05-.05 0-.027-.022-.05-.05-.05s-.05.023-.05.05c0 .028.022.05.05.05z" fill="#aeaeae"/><path d="m125.34 387.12c.254 0 .46-.206.46-.46s-.206-.46-.46-.46-.46.206-.46.46.206.46.46.46z" fill="#aeaeae"/><path d="m118.12 345.24c.226 0 .41-.184.41-.41s-.184-.41-.41-.41-.41.184-.41.41.184.41.41.41z" fill="#aeaeae"/><path d="m184.9 377.58c.348 0 .63-.282.63-.63s-.282-.63-.63-.63-.63.282-.63.63.282.63.63.63z" fill="#aeaeae"/><path d="m248.19 420.02c2.43 0 4.4-1.97 4.4-4.4s-1.97-4.4-4.4-4.4-4.4 1.97-4.4 4.4 1.97 4.4 4.4 4.4z" fill="#aeaeae"/><path d="m254.23 423.91c.53 0 .96-.43.96-.96s-.43-.96-.96-.96-.96.43-.96.96.43.96.96.96z" fill="#888788"/><path d="m314.6 427.33c.271 0 .49-.22.49-.49 0-.271-.219-.49-.49-.49s-.49.219-.49.49c0 .27.219.49.49.49z" fill="#aeaeae"/><path d="m431.76 441.38c.967 0 1.75-.784 1.75-1.75 0-.967-.783-1.75-1.75-1.75-.966 0-1.75.783-1.75 1.75 0 .966.784 1.75 1.75 1.75z" fill="#2ca3f4"/><path d="m390.24 345.1c2.568 0 4.65-2.082 4.65-4.65s-2.082-4.65-4.65-4.65-4.65 2.082-4.65 4.65 2.082 4.65 4.65 4.65z" fill="#aeaeae"/><path d="m395.6 405.73c1.756 0 3.18-1.424 3.18-3.18s-1.424-3.18-3.18-3.18-3.18 1.424-3.18 3.18 1.424 3.18 3.18 3.18z" fill="#aeaeae"/><path d="m494.8 347.19c.309 0 .56-.25.56-.56 0-.309-.251-.56-.56-.56s-.56.251-.56.56c0 .31.251.56.56.56z" fill="#aeaeae"/><path d="m535.95 405.28c1.911 0 3.46-1.549 3.46-3.46s-1.549-3.46-3.46-3.46-3.46 1.549-3.46 3.46 1.549 3.46 3.46 3.46z" fill="#2ca3f4"/><path d="m465.4 455.95c.447 0 .81-.363.81-.81s-.363-.81-.81-.81-.81.363-.81.81.363.81.81.81z" fill="#aeaeae"/><path d="m563.88 371.3c.177 0 .32-.143.32-.32s-.143-.32-.32-.32-.32.143-.32.32.143.32.32.32z" fill="#333"/><path d="m635.69 463.88c1.176 0 2.13-.954 2.13-2.13s-.954-2.13-2.13-2.13-2.13.954-2.13 2.13.954 2.13 2.13 2.13z" fill="#aeaeae"/><path d="m692.75 392.27c.757 0 1.37-.613 1.37-1.37 0-.756-.613-1.37-1.37-1.37s-1.37.614-1.37 1.37c0 .757.613 1.37 1.37 1.37z" fill="#333"/><path d="m677.46 391.28c.889 0 1.61-.721 1.61-1.61 0-.89-.721-1.61-1.61-1.61s-1.61.72-1.61 1.61c0 .889.721 1.61 1.61 1.61z" fill="#888788"/><path d="m688.07 470.93c1.226 0 2.22-.994 2.22-2.22s-.994-2.22-2.22-2.22-2.22.994-2.22 2.22.994 2.22 2.22 2.22z" fill="#888788"/><path d="m818.75 409.549c2.01 0 3.64-1.629 3.64-3.64 0-2.01-1.63-3.639-3.64-3.639s-3.64 1.629-3.64 3.639c0 2.011 1.63 3.64 3.64 3.64z" fill="#333"/><path d="m803.83 392.21c.298 0 .54-.242.54-.54s-.242-.54-.54-.54-.54.242-.54.54.242.54.54.54z" fill="#888788"/><path d="m832.47 414.05c.723 0 1.31-.587 1.31-1.31 0-.724-.587-1.31-1.31-1.31-.724 0-1.31.586-1.31 1.31 0 .723.586 1.31 1.31 1.31z" fill="#333"/><path d="m881.36 356.25c.077 0 .14-.063.14-.14 0-.078-.063-.14-.14-.14s-.14.062-.14.14c0 .077.063.14.14.14z" fill="#aeaeae"/><path d="m911.48 414.34c.177 0 .32-.143.32-.32s-.143-.32-.32-.32-.32.143-.32.32.143.32.32.32z" fill="#aeaeae"/><path d="m942.71 372.12c.431 0 .78-.35.78-.78 0-.431-.349-.78-.78-.78s-.78.349-.78.78c0 .43.349.78.78.78z" fill="#aeaeae"/><path d="m1000.24 458.01c.72 0 1.31-.587 1.31-1.31 0-.724-.59-1.31-1.31-1.31-.724 0-1.31.586-1.31 1.31 0 .723.586 1.31 1.31 1.31z" fill="#aeaeae"/><path d="m1024.52 440.28c.98 0 1.78-.797 1.78-1.78s-.8-1.78-1.78-1.78-1.78.797-1.78 1.78.8 1.78 1.78 1.78z" fill="#888788"/><path d="m1130.88 347.18c.03 0 .05-.022.05-.05s-.02-.05-.05-.05-.05.022-.05.05.02.05.05.05z" fill="#aeaeae"/><path d="m1134.34 407.58c1.67 0 3.03-1.357 3.03-3.031 0-1.673-1.36-3.029-3.03-3.029s-3.03 1.356-3.03 3.029c0 1.674 1.36 3.031 3.03 3.031z" fill="#aeaeae"/><path d="m1097.83 344.7c1.18 0 2.13-.953 2.13-2.13 0-1.176-.95-2.13-2.13-2.13s-2.13.954-2.13 2.13c0 1.177.95 2.13 2.13 2.13z" fill="#aeaeae"/><path d="m1133.5 393.38c1.26 0 2.28-1.021 2.28-2.28s-1.02-2.28-2.28-2.28-2.28 1.021-2.28 2.28 1.02 2.28 2.28 2.28z" fill="#aeaeae"/><path d="m81.0199 457.86c.7677 0 1.39-.622 1.39-1.39s-.6223-1.39-1.39-1.39-1.39.622-1.39 1.39.6223 1.39 1.39 1.39z" fill="#aeaeae"/><path d="m176.57 437.89c.298 0 .54-.242.54-.54 0-.299-.242-.54-.54-.54s-.54.241-.54.54c0 .298.242.54.54.54z" fill="#888788"/><path d="m103.16 444.86c.453 0 .82-.367.82-.82s-.367-.82-.82-.82-.82.367-.82.82.367.82.82.82z" fill="#aeaeae"/><path d="m180.92 426.14c1.712 0 3.1-1.388 3.1-3.1s-1.388-3.1-3.1-3.1-3.1 1.388-3.1 3.1 1.388 3.1 3.1 3.1z" fill="#aeaeae"/><path d="m226.29 453.38c.491 0 .89-.399.89-.89 0-.492-.399-.89-.89-.89-.492 0-.89.398-.89.89 0 .491.398.89.89.89z" fill="#aeaeae"/><path d="m231.47 456.87c.343 0 .62-.278.62-.62 0-.343-.277-.62-.62-.62-.342 0-.62.277-.62.62 0 .342.278.62.62.62z" fill="#aeaeae"/><path d="m254.15 456.82c.16 0 .29-.13.29-.29s-.13-.29-.29-.29-.29.13-.29.29.13.29.29.29z" fill="#e74666"/><path d="m295.34 447.18c.42 0 .76-.34.76-.76s-.34-.76-.76-.76-.76.34-.76.76.34.76.76.76z" fill="#333"/><path d="m355.28 464.93c.657 0 1.19-.533 1.19-1.19s-.533-1.19-1.19-1.19-1.19.533-1.19 1.19.533 1.19 1.19 1.19z" fill="#aeaeae"/><path d="m465.19 448.35c.657 0 1.19-.533 1.19-1.19s-.533-1.19-1.19-1.19-1.19.533-1.19 1.19.533 1.19 1.19 1.19z" fill="#aeaeae"/><path d="m492.72 457.92c1.038 0 1.88-.842 1.88-1.88s-.842-1.88-1.88-1.88-1.88.842-1.88 1.88.842 1.88 1.88 1.88z" fill="#aeaeae"/><path d="m499.15 435.51c.16 0 .29-.13.29-.29s-.13-.29-.29-.29-.29.13-.29.29.13.29.29.29z" fill="#aeaeae"/><path d="m466.02 406.54c.309 0 .56-.251.56-.56s-.251-.56-.56-.56-.56.251-.56.56.251.56.56.56z" fill="#aeaeae"/><path d="m561.16 464.48c.055 0 .1-.045.1-.1s-.045-.1-.1-.1-.1.045-.1.1.045.1.1.1z" fill="#2ca3f4"/><path d="m565.96 468.55c.144 0 .26-.116.26-.26 0-.143-.116-.26-.26-.26s-.26.117-.26.26c0 .144.116.26.26.26z" fill="#aeaeae"/><path d="m613.81 395.53c.652 0 1.18-.528 1.18-1.18s-.528-1.18-1.18-1.18-1.18.528-1.18 1.18.528 1.18 1.18 1.18z" fill="#888788"/><path d="m685.55 447.05c.503 0 .91-.407.91-.909 0-.503-.407-.911-.91-.911-.502 0-.91.408-.91.911 0 .502.408.909.91.909z" fill="#aeaeae"/><path d="m815.74 496.53c1.022 0 1.85-.828 1.85-1.85s-.828-1.85-1.85-1.85-1.85.828-1.85 1.85.828 1.85 1.85 1.85z" fill="#aeaeae"/><path d="m729.73 434.67c1.105 0 2-.896 2-2 0-1.105-.895-2-2-2s-2 .895-2 2c0 1.104.895 2 2 2z" fill="#aeaeae"/><path d="m767.43 424.57c.508 0 .92-.411.92-.919 0-.509-.412-.921-.92-.921s-.92.412-.92.921c0 .508.412.919.92.919z" fill="#aeaeae"/><path d="m853.43 429.22c1.055 0 1.91-.855 1.91-1.91s-.855-1.91-1.91-1.91-1.91.855-1.91 1.91.855 1.91 1.91 1.91z" fill="#aeaeae"/><path d="m839.64 484.18c1.088 0 1.97-.882 1.97-1.97s-.882-1.97-1.97-1.97-1.97.882-1.97 1.97.882 1.97 1.97 1.97z" fill="#aeaeae"/><path d="m940.16 427.73c.276 0 .5-.223.5-.5 0-.276-.224-.5-.5-.5s-.5.224-.5.5c0 .277.224.5.5.5z" fill="#aeaeae"/><path d="m978.22 444.02c.635 0 1.15-.515 1.15-1.15s-.515-1.15-1.15-1.15-1.15.515-1.15 1.15.515 1.15 1.15 1.15z" fill="#888788"/><path d="m987.19 395.56c1 0 1.81-.81 1.81-1.81 0-.999-.81-1.81-1.81-1.81s-1.81.811-1.81 1.81c0 1 .81 1.81 1.81 1.81z" fill="#333"/><path d="m1003.47 456.24c1.47 0 2.66-1.191 2.66-2.66s-1.19-2.66-2.66-2.66-2.66 1.191-2.66 2.66 1.19 2.66 2.66 2.66z" fill="#aeaeae"/><path d="m1123.1 494.919c.66 0 1.2-.537 1.2-1.2 0-.662-.54-1.199-1.2-1.199s-1.2.537-1.2 1.199c0 .663.54 1.2 1.2 1.2z" fill="#333"/><path d="m1130.03 417.69c.55 0 1-.447 1-1 0-.552-.45-1-1-1s-1 .448-1 1c0 .553.45 1 1 1z" fill="#aeaeae"/><path d="m1159.91 415.99c.04 0 .07-.032.07-.07 0-.039-.03-.07-.07-.07s-.07.031-.07.07c0 .038.03.07.07.07z" fill="#aeaeae"/><path d="m1237.22 444.05c.68 0 1.24-.555 1.24-1.24s-.56-1.24-1.24-1.24-1.24.555-1.24 1.24.56 1.24 1.24 1.24z" fill="#aeaeae"/><path d="m93.75 505.25c2.0711 0 3.75-1.679 3.75-3.75s-1.6789-3.75-3.75-3.75-3.75 1.679-3.75 3.75 1.6789 3.75 3.75 3.75z" fill="#aeaeae"/><path d="m87.9399 518.95c.1381 0 .25-.112.25-.25s-.1119-.25-.25-.25c-.138 0-.25.112-.25.25s.112.25.25.25z" fill="#aeaeae"/><path d="m223.73 455.06c.365 0 .66-.295.66-.66 0-.364-.295-.66-.66-.66-.364 0-.66.296-.66.66 0 .365.296.66.66.66z" fill="#aeaeae"/><path d="m243.81 558.16c1.585 0 2.87-1.285 2.87-2.87s-1.285-2.87-2.87-2.87-2.87 1.285-2.87 2.87 1.285 2.87 2.87 2.87z" fill="#333"/><path d="m245.88 517.22c.293 0 .53-.237.53-.53s-.237-.53-.53-.53-.53.237-.53.53.237.53.53.53z" fill="#2ca3f4"/><path d="m289.42 500.61c.088 0 .16-.072.16-.16s-.072-.16-.16-.16-.16.072-.16.16.072.16.16.16z" fill="#aeaeae"/><path d="m303.08 430.01c.547 0 .99-.443.99-.99 0-.546-.443-.99-.99-.99s-.99.444-.99.99c0 .547.443.99.99.99z" fill="#aeaeae"/><path d="m384.38 438.37c.79 0 1.43-.64 1.43-1.43s-.64-1.43-1.43-1.43-1.43.64-1.43 1.43.64 1.43 1.43 1.43z" fill="#333"/><path d="m407.68 565.56c2.507 0 4.54-2.032 4.54-4.539 0-2.508-2.033-4.541-4.54-4.541s-4.54 2.033-4.54 4.541c0 2.507 2.033 4.539 4.54 4.539z" fill="#2ca3f4"/><path d="m404.3 550.8c.232 0 .42-.188.42-.42s-.188-.42-.42-.42-.42.188-.42.42.188.42.42.42z" fill="#aeaeae"/><path d="m532.63 478.17c.254 0 .46-.206.46-.46s-.206-.46-.46-.46-.46.206-.46.46.206.46.46.46z" fill="#2ca3f4"/><path d="m436.12 435.6c1.419 0 2.57-1.151 2.57-2.57s-1.151-2.57-2.57-2.57-2.57 1.151-2.57 2.57 1.151 2.57 2.57 2.57z" fill="#333"/><g fill="#aeaeae"><path d="m531.07 483.29c1.314 0 2.38-1.065 2.38-2.38 0-1.314-1.066-2.38-2.38-2.38s-2.38 1.066-2.38 2.38c0 1.315 1.066 2.38 2.38 2.38z"/><path d="m513.98 466.11c1.811 0 3.28-1.469 3.28-3.28 0-1.812-1.469-3.28-3.28-3.28-1.812 0-3.28 1.468-3.28 3.28 0 1.811 1.468 3.28 3.28 3.28z"/><path d="m668.47 526.08c.26 0 .47-.211.47-.47 0-.26-.21-.47-.47-.47s-.47.21-.47.47c0 .259.21.47.47.47z"/><path d="m673.57 461.33c2.259 0 4.09-1.831 4.09-4.09 0-2.258-1.831-4.09-4.09-4.09s-4.09 1.832-4.09 4.09c0 2.259 1.831 4.09 4.09 4.09z"/><path d="m709.21 513.06c.9 0 1.63-.73 1.63-1.63s-.73-1.63-1.63-1.63-1.63.73-1.63 1.63.73 1.63 1.63 1.63z"/><path d="m736.98 503.39c.701 0 1.27-.569 1.27-1.27 0-.702-.569-1.27-1.27-1.27s-1.27.568-1.27 1.27c0 .701.569 1.27 1.27 1.27z"/><path d="m791.7 450.84c1.011 0 1.83-.82 1.83-1.83 0-1.011-.819-1.83-1.83-1.83s-1.83.819-1.83 1.83c0 1.01.819 1.83 1.83 1.83z"/><path d="m808.09 555.96c.144 0 .26-.116.26-.26 0-.143-.116-.26-.26-.26s-.26.117-.26.26c0 .144.116.26.26.26z"/><path d="m858.01 503.87c1.381 0 2.5-1.119 2.5-2.5s-1.119-2.5-2.5-2.5-2.5 1.119-2.5 2.5 1.119 2.5 2.5 2.5z"/><path d="m910.44 528.2c.42 0 .76-.341.76-.76 0-.42-.34-.76-.76-.76s-.76.34-.76.76c0 .419.34.76.76.76z"/><path d="m989.94 501.32c.519 0 .94-.42.94-.94 0-.519-.421-.94-.94-.94s-.94.421-.94.94c0 .52.421.94.94.94z"/><path d="m943.5 534.9c1.624 0 2.94-1.317 2.94-2.94 0-1.624-1.316-2.94-2.94-2.94s-2.94 1.316-2.94 2.94c0 1.623 1.316 2.94 2.94 2.94z"/><path d="m985.65 538.64c.276 0 .5-.224.5-.5s-.224-.5-.5-.5-.5.224-.5.5.224.5.5.5z"/><path d="m1055.65 419.59c.92 0 1.67-.748 1.67-1.67s-.75-1.67-1.67-1.67-1.67.748-1.67 1.67.75 1.67 1.67 1.67z"/><path d="m1038.79 437.719c2.4 0 4.35-1.947 4.35-4.349 0-2.403-1.95-4.35-4.35-4.35s-4.35 1.947-4.35 4.35c0 2.402 1.95 4.349 4.35 4.349z"/><path d="m1159.45 572.24c.14 0 .26-.117.26-.26 0-.144-.12-.26-.26-.26s-.26.116-.26.26c0 .143.12.26.26.26z"/></g><path d="m1168.06 475.1c1.24 0 2.25-1.008 2.25-2.25 0-1.243-1.01-2.25-2.25-2.25s-2.25 1.007-2.25 2.25c0 1.242 1.01 2.25 2.25 2.25z" fill="#333"/><path d="m1255.55 497.81c.09 0 .17-.076.17-.17s-.08-.17-.17-.17-.17.076-.17.17.08.17.17.17z" fill="#2ca3f4"/><path d="m105.45 467.12c.193 0 .35-.157.35-.35s-.157-.35-.35-.35-.35.157-.35.35.157.35.35.35z" fill="#333"/><path d="m137.07 609.4c.69 0 1.25-.559 1.25-1.25 0-.69-.56-1.25-1.25-1.25s-1.25.56-1.25 1.25c0 .691.56 1.25 1.25 1.25z" fill="#aeaeae"/><path d="m76.5101 585.68c.7842 0 1.42-.636 1.42-1.42s-.6358-1.42-1.42-1.42c-.7843 0-1.42.636-1.42 1.42s.6357 1.42 1.42 1.42z" fill="#888788"/><path d="m182.24 500.63c.613 0 1.11-.497 1.11-1.11s-.497-1.11-1.11-1.11-1.11.497-1.11 1.11.497 1.11 1.11 1.11z" fill="#aeaeae"/><path d="m261.93 555.83c1.221 0 2.21-.989 2.21-2.21 0-1.22-.989-2.21-2.21-2.21s-2.21.99-2.21 2.21c0 1.221.989 2.21 2.21 2.21z" fill="#aeaeae"/><path d="m240.14 591.1c1.546 0 2.8-1.254 2.8-2.8s-1.254-2.8-2.8-2.8-2.8 1.254-2.8 2.8 1.254 2.8 2.8 2.8z" fill="#aeaeae"/><path d="m352.81 548.96c.613 0 1.11-.497 1.11-1.11s-.497-1.11-1.11-1.11-1.11.497-1.11 1.11.497 1.11 1.11 1.11z" fill="#888788"/><path d="m276.28 537.57c1.684 0 3.05-1.366 3.05-3.05 0-1.685-1.366-3.05-3.05-3.05-1.685 0-3.05 1.365-3.05 3.05 0 1.684 1.365 3.05 3.05 3.05z" fill="#333"/><path d="m418.92 543.77c2.06 0 3.73-1.67 3.73-3.73s-1.67-3.73-3.73-3.73-3.73 1.67-3.73 3.73 1.67 3.73 3.73 3.73z" fill="#aeaeae"/><path d="m469.06 536.99c1.292 0 2.34-1.048 2.34-2.34 0-1.293-1.048-2.34-2.34-2.34s-2.34 1.047-2.34 2.34c0 1.292 1.048 2.34 2.34 2.34z" fill="#333"/><path d="m387.24 495.03c.16 0 .29-.13.29-.29s-.13-.29-.29-.29-.29.13-.29.29.13.29.29.29z" fill="#aeaeae"/><path d="m504.57 550.88c.243 0 .44-.197.44-.44s-.197-.44-.44-.44-.44.197-.44.44.197.44.44.44z" fill="#aeaeae"/><path d="m623.09 535.43c.58 0 1.05-.47 1.05-1.05s-.47-1.05-1.05-1.05-1.05.47-1.05 1.05.47 1.05 1.05 1.05z" fill="#2ca3f4"/><path d="m562.01 513.9c.574 0 1.04-.465 1.04-1.04 0-.574-.466-1.04-1.04-1.04s-1.04.466-1.04 1.04c0 .575.466 1.04 1.04 1.04z" fill="#aeaeae"/><path d="m575.75 483.37c1.475 0 2.67-1.195 2.67-2.67 0-1.474-1.195-2.67-2.67-2.67s-2.67 1.196-2.67 2.67c0 1.475 1.195 2.67 2.67 2.67z" fill="#333"/><path d="m657.54 501.86c.469 0 .85-.38.85-.85 0-.469-.381-.85-.85-.85-.47 0-.85.381-.85.85 0 .47.38.85.85.85z" fill="#aeaeae"/><path d="m682.58 573.05c1.06 0 1.92-.86 1.92-1.92s-.86-1.92-1.92-1.92-1.92.86-1.92 1.92.86 1.92 1.92 1.92z" fill="#e74666"/><path d="m698.59 496.46c.254 0 .46-.206.46-.46s-.206-.46-.46-.46-.46.206-.46.46.206.46.46.46z" fill="#aeaeae"/><path d="m769.59 552.37c1.193 0 2.16-.967 2.16-2.16s-.967-2.16-2.16-2.16-2.16.967-2.16 2.16.967 2.16 2.16 2.16z" fill="#aeaeae"/><path d="m758.79 610.049c.077 0 .14-.062.14-.14 0-.077-.063-.139-.14-.139s-.14.062-.14.139c0 .078.063.14.14.14z" fill="#aeaeae"/><path d="m828.57 536.31c.182 0 .33-.147.33-.33 0-.182-.148-.33-.33-.33s-.33.148-.33.33c0 .183.148.33.33.33z" fill="#aeaeae"/><path d="m887.26 590.8c.668 0 1.21-.542 1.21-1.21s-.542-1.21-1.21-1.21-1.21.542-1.21 1.21.542 1.21 1.21 1.21z" fill="#aeaeae"/><path d="m936.72 562c.331 0 .6-.269.6-.6 0-.332-.269-.6-.6-.6s-.6.268-.6.6c0 .331.269.6.6.6z" fill="#e74666"/><path d="m942.53 596.08c.21 0 .38-.17.38-.38s-.17-.38-.38-.38-.38.17-.38.38.17.38.38.38z" fill="#aeaeae"/><path d="m1004.72 592.18c.78 0 1.42-.636 1.42-1.42s-.64-1.42-1.42-1.42-1.42.636-1.42 1.42.64 1.42 1.42 1.42z" fill="#aeaeae"/><path d="m1038.85 557.91c.77 0 1.39-.622 1.39-1.39s-.62-1.39-1.39-1.39-1.39.622-1.39 1.39.62 1.39 1.39 1.39z" fill="#888788"/><path d="m1039.38 512.2c.62 0 1.13-.505 1.13-1.13 0-.624-.51-1.13-1.13-1.13s-1.13.506-1.13 1.13c0 .625.51 1.13 1.13 1.13z" fill="#aeaeae"/><path d="m1135.11 599.53c1.45 0 2.62-1.173 2.62-2.62s-1.17-2.62-2.62-2.62-2.62 1.173-2.62 2.62 1.17 2.62 2.62 2.62z" fill="#888788"/><path d="m1234.72 498.7c.12 0 .21-.094.21-.21s-.09-.21-.21-.21-.21.094-.21.21.09.21.21.21z" fill="#aeaeae"/><path d="m1138.11 544.49c1.29 0 2.33-1.043 2.33-2.33s-1.04-2.33-2.33-2.33-2.33 1.043-2.33 2.33 1.04 2.33 2.33 2.33z" fill="#333"/><path d="m51.64 499.34c.359 0 .65-.291.65-.65s-.291-.65-.65-.65-.65.291-.65.65.291.65.65.65z" fill="#aeaeae"/><path d="m170.57 537.29c.751 0 1.36-.609 1.36-1.36s-.609-1.36-1.36-1.36-1.36.609-1.36 1.36.609 1.36 1.36 1.36z" fill="#333"/><path d="m149.81 587.7c.193 0 .35-.157.35-.35s-.157-.35-.35-.35-.35.157-.35.35.157.35.35.35z" fill="#333"/><path d="m261.2 541.9c2.027 0 3.67-1.644 3.67-3.67 0-2.027-1.643-3.67-3.67-3.67s-3.67 1.643-3.67 3.67c0 2.026 1.643 3.67 3.67 3.67z" fill="#aeaeae"/><path d="m256.62 497.17c.95 0 1.72-.77 1.72-1.719 0-.95-.77-1.721-1.72-1.721s-1.72.771-1.72 1.721c0 .949.77 1.719 1.72 1.719z" fill="#333"/><path d="m283.92 590.33c1.187 0 2.15-.962 2.15-2.15 0-1.187-.963-2.15-2.15-2.15s-2.15.963-2.15 2.15c0 1.188.963 2.15 2.15 2.15z" fill="#aeaeae"/><path d="m364.06 520.1c.199 0 .36-.161.36-.36s-.161-.36-.36-.36-.36.161-.36.36.161.36.36.36z" fill="#2ca3f4"/><path d="m383 552.87c.491 0 .89-.399.89-.89 0-.492-.399-.89-.89-.89-.492 0-.89.398-.89.89 0 .491.398.89.89.89z" fill="#aeaeae"/><path d="m396.4 604.4c.69 0 1.25-.559 1.25-1.25 0-.69-.56-1.25-1.25-1.25s-1.25.56-1.25 1.25c0 .691.56 1.25 1.25 1.25z" fill="#aeaeae"/><path d="m448.25 553.36c1.204 0 2.18-.976 2.18-2.18s-.976-2.18-2.18-2.18-2.18.976-2.18 2.18.976 2.18 2.18 2.18z" fill="#888788"/><path d="m506.94 566.63c.911 0 1.65-.739 1.65-1.65s-.739-1.65-1.65-1.65-1.65.739-1.65 1.65.739 1.65 1.65 1.65z" fill="#aeaeae"/><path d="m557.25 525.18c1.044 0 1.89-.846 1.89-1.89 0-1.043-.846-1.89-1.89-1.89s-1.89.847-1.89 1.89c0 1.044.846 1.89 1.89 1.89z" fill="#aeaeae"/><path d="m617.57 562.57c.182 0 .33-.148.33-.33s-.148-.33-.33-.33-.33.148-.33.33.148.33.33.33z" fill="#aeaeae"/><path d="m599.09 600.71c.746 0 1.35-.605 1.35-1.35 0-.746-.604-1.35-1.35-1.35s-1.35.604-1.35 1.35c0 .745.604 1.35 1.35 1.35z" fill="#aeaeae"/><path d="m668.3 504.59c1.276 0 2.31-1.034 2.31-2.31s-1.034-2.31-2.31-2.31-2.31 1.034-2.31 2.31 1.034 2.31 2.31 2.31z" fill="#333"/><path d="m697.2 621.25c.116 0 .21-.094.21-.21s-.094-.21-.21-.21-.21.094-.21.21.094.21.21.21z" fill="#888788"/><path d="m657.26 566.47c.602 0 1.09-.488 1.09-1.09s-.488-1.09-1.09-1.09-1.09.488-1.09 1.09.488 1.09 1.09 1.09z" fill="#333"/><path d="m774.79 609.28c.607 0 1.1-.492 1.1-1.1 0-.607-.493-1.1-1.1-1.1-.608 0-1.1.493-1.1 1.1 0 .608.492 1.1 1.1 1.1z" fill="#aeaeae"/><path d="m853.69 598.92c1.436 0 2.6-1.164 2.6-2.6s-1.164-2.6-2.6-2.6-2.6 1.164-2.6 2.6 1.164 2.6 2.6 2.6z" fill="#333"/><path d="m817.53 553.58c1.85 0 3.35-1.5 3.35-3.35s-1.5-3.35-3.35-3.35-3.35 1.5-3.35 3.35 1.5 3.35 3.35 3.35z" fill="#aeaeae"/><path d="m896.7 534.58c.69 0 1.25-.56 1.25-1.25s-.56-1.25-1.25-1.25-1.25.56-1.25 1.25.56 1.25 1.25 1.25z" fill="#aeaeae"/><path d="m964.59 576.16c1.928 0 3.49-1.563 3.49-3.49 0-1.928-1.562-3.49-3.49-3.49-1.927 0-3.49 1.562-3.49 3.49 0 1.927 1.563 3.49 3.49 3.49z" fill="#aeaeae"/><path d="m976.67 613.15c.652 0 1.18-.528 1.18-1.18s-.528-1.18-1.18-1.18-1.18.528-1.18 1.18.528 1.18 1.18 1.18z" fill="#888788"/><path d="m1036.29 580.2c1.01 0 1.83-.819 1.83-1.83s-.82-1.83-1.83-1.83-1.83.819-1.83 1.83.82 1.83 1.83 1.83z" fill="#aeaeae"/><path d="m1081.14 546.37c1.28 0 2.32-1.038 2.32-2.32 0-1.281-1.04-2.32-2.32-2.32s-2.32 1.039-2.32 2.32c0 1.282 1.04 2.32 2.32 2.32z" fill="#aeaeae"/><path d="m1066.21 565.2c.63 0 1.14-.51 1.14-1.14s-.51-1.14-1.14-1.14-1.14.51-1.14 1.14.51 1.14 1.14 1.14z" fill="#333"/><path d="m1147.13 573.47c1.07 0 1.93-.864 1.93-1.93s-.86-1.93-1.93-1.93-1.93.864-1.93 1.93.86 1.93 1.93 1.93z" fill="#333"/><path d="m1171.78 512.84c.66 0 1.19-.533 1.19-1.19s-.53-1.19-1.19-1.19-1.19.533-1.19 1.19.53 1.19 1.19 1.19z" fill="#aeaeae"/><path d="m1238.01 595.57c.07 0 .13-.059.13-.13 0-.072-.06-.13-.13-.13s-.13.058-.13.13c0 .071.06.13.13.13z" fill="#aeaeae"/><path d="m99.4701 594.88c.6409 0 1.1599-.52 1.1599-1.16 0-.641-.519-1.16-1.1599-1.16-.6407 0-1.16.519-1.16 1.16 0 .64.5193 1.16 1.16 1.16z" fill="#888788"/><path d="m198.94 519.69c.541 0 .98-.438.98-.979 0-.542-.439-.981-.98-.981s-.98.439-.98.981c0 .541.439.979.98.979z" fill="#333"/><path d="m152.12 562.61c2.043 0 3.7-1.657 3.7-3.7 0-2.044-1.657-3.7-3.7-3.7-2.044 0-3.7 1.656-3.7 3.7 0 2.043 1.656 3.7 3.7 3.7z" fill="#aeaeae"/><path d="m204.42 569.93c.37 0 .67-.3.67-.67s-.3-.67-.67-.67-.67.3-.67.67.3.67.67.67z" fill="#aeaeae"/><path d="m209.48 586.52c2.347 0 4.25-1.903 4.25-4.25 0-2.348-1.903-4.25-4.25-4.25s-4.25 1.902-4.25 4.25c0 2.347 1.903 4.25 4.25 4.25z" fill="#aeaeae"/><path d="m281.12 588.54c.475 0 .86-.385.86-.86s-.385-.86-.86-.86-.86.385-.86.86.385.86.86.86z" fill="#333"/><path d="m312.51 601.65c.525 0 .95-.425.95-.95s-.425-.95-.95-.95-.95.425-.95.95.425.95.95.95z" fill="#333"/><path d="m414.42 601c.398 0 .72-.323.72-.72 0-.398-.322-.72-.72-.72s-.72.322-.72.72c0 .397.322.72.72.72z" fill="#aeaeae"/><path d="m404.57 620.29c1.038 0 1.88-.841 1.88-1.88 0-1.038-.842-1.88-1.88-1.88s-1.88.842-1.88 1.88c0 1.039.842 1.88 1.88 1.88z" fill="#aeaeae"/><path d="m399.82 562.48c.282 0 .51-.228.51-.51s-.228-.51-.51-.51-.51.228-.51.51.228.51.51.51z" fill="#aeaeae"/><path d="m558.87 635.28c.077 0 .14-.063.14-.14s-.063-.14-.14-.14-.14.063-.14.14.063.14.14.14z" fill="#aeaeae"/><path d="m461.51 628.66c.331 0 .6-.269.6-.6s-.269-.6-.6-.6-.6.269-.6.6.269.6.6.6z" fill="#aeaeae"/><path d="m519.47 544.58c.552 0 1-.448 1-1s-.448-1-1-1-1 .448-1 1 .448 1 1 1z" fill="#888788"/><path d="m596.15 614.11c.988 0 1.79-.801 1.79-1.79 0-.988-.802-1.79-1.79-1.79-.989 0-1.79.802-1.79 1.79 0 .989.801 1.79 1.79 1.79z" fill="#aeaeae"/><path d="m666.74 604.4c1.651 0 2.99-1.339 2.99-2.99s-1.339-2.99-2.99-2.99-2.99 1.339-2.99 2.99 1.339 2.99 2.99 2.99z" fill="#333"/><path d="m629.08 540.62c1.287 0 2.33-1.043 2.33-2.33s-1.043-2.33-2.33-2.33-2.33 1.043-2.33 2.33 1.043 2.33 2.33 2.33z" fill="#aeaeae"/><path d="m678.39 617.71c.436 0 .79-.354.79-.79s-.354-.79-.79-.79-.79.354-.79.79.354.79.79.79z" fill="#aeaeae"/><path d="m769.84 568.56c.558 0 1.01-.452 1.01-1.01s-.452-1.01-1.01-1.01-1.01.452-1.01 1.01.452 1.01 1.01 1.01z" fill="#2ca3f4"/><path d="m828.59 572.04c.265 0 .48-.215.48-.48s-.215-.48-.48-.48-.48.215-.48.48.215.48.48.48z" fill="#333"/><path d="m917.55 603.29c.508 0 .92-.412.92-.92s-.412-.92-.92-.92-.92.412-.92.92.412.92.92.92z" fill="#aeaeae"/><path d="m964.3 574.39c.326 0 .59-.264.59-.59s-.264-.59-.59-.59-.59.264-.59.59.264.59.59.59z" fill="#aeaeae"/><path d="m923.48 577.17c.022 0 .04-.018.04-.04s-.018-.04-.04-.04-.04.018-.04.04.018.04.04.04z" fill="#333"/><path d="m976.14 588.09c.039 0 .07-.031.07-.07 0-.038-.031-.07-.07-.07s-.07.032-.07.07c0 .039.031.07.07.07z" fill="#aeaeae"/><path d="m1074.2 628.31c1.99 0 3.6-1.611 3.6-3.6 0-1.988-1.61-3.6-3.6-3.6s-3.6 1.612-3.6 3.6c0 1.989 1.61 3.6 3.6 3.6z" fill="#aeaeae"/><path d="m999.76 638.98c.28 0 .5-.223.5-.5 0-.276-.22-.5-.5-.5-.276 0-.5.224-.5.5 0 .277.224.5.5.5z" fill="#aeaeae"/><path d="m1031.17 621.05c1.72 0 3.12-1.397 3.12-3.12 0-1.724-1.4-3.12-3.12-3.12s-3.12 1.396-3.12 3.12c0 1.723 1.4 3.12 3.12 3.12z" fill="#aeaeae"/><path d="m1151.72 588.96c.46 0 .83-.372.83-.83 0-.459-.37-.83-.83-.83s-.83.371-.83.83c0 .458.37.83.83.83z" fill="#aeaeae"/><path d="m1146.85 586.8c.49 0 .88-.394.88-.88s-.39-.88-.88-.88-.88.394-.88.88.39.88.88.88z" fill="#aeaeae"/><path d="m1191.77 595.76c1.73 0 3.14-1.405 3.14-3.14 0-1.734-1.41-3.14-3.14-3.14s-3.14 1.406-3.14 3.14c0 1.735 1.41 3.14 3.14 3.14z" fill="#333"/><path d="m181.23 640.2c.492 0 .89-.399.89-.89 0-.492-.398-.89-.89-.89-.491 0-.89.398-.89.89 0 .491.399.89.89.89z" fill="#aeaeae"/><path d="m354.91 618.21c.591 0 1.07-.479 1.07-1.07s-.479-1.07-1.07-1.07-1.07.479-1.07 1.07.479 1.07 1.07 1.07z" fill="#aeaeae"/><path d="m412.62 566.24c.326 0 .59-.265.59-.59 0-.326-.264-.59-.59-.59s-.59.264-.59.59c0 .325.264.59.59.59z" fill="#aeaeae"/><path d="m453.89 617.59c1.298 0 2.35-1.053 2.35-2.35 0-1.298-1.052-2.35-2.35-2.35s-2.35 1.052-2.35 2.35c0 1.297 1.052 2.35 2.35 2.35z" fill="#aeaeae"/><path d="m508.05 634.22c.177 0 .32-.143.32-.32s-.143-.32-.32-.32-.32.143-.32.32.143.32.32.32z" fill="#333"/><path d="m505.47 633.44c.276 0 .5-.223.5-.5 0-.276-.224-.5-.5-.5s-.5.224-.5.5c0 .277.224.5.5.5z" fill="#aeaeae"/><path d="m627.14 636.93c.348 0 .63-.282.63-.63s-.282-.63-.63-.63-.63.282-.63.63.282.63.63.63z" fill="#aeaeae"/><path d="m672.38 627.87c.237 0 .43-.193.43-.43 0-.238-.193-.43-.43-.43-.238 0-.43.192-.43.43 0 .237.192.43.43.43z" fill="#aeaeae"/><path d="m673.52 583.76c.116 0 .21-.094.21-.21s-.094-.21-.21-.21-.21.094-.21.21.094.21.21.21z" fill="#333"/><path d="m783.48 616.94c.083 0 .15-.068.15-.15 0-.083-.067-.15-.15-.15s-.15.067-.15.15c0 .082.067.15.15.15z" fill="#aeaeae"/><path d="m864.11 587.6c.966 0 1.75-.784 1.75-1.75 0-.967-.784-1.75-1.75-1.75-.967 0-1.75.783-1.75 1.75 0 .966.783 1.75 1.75 1.75z" fill="#aeaeae"/><path d="m898.96 636.09c.503 0 .91-.408.91-.91 0-.503-.407-.91-.91-.91-.502 0-.91.407-.91.91 0 .502.408.91.91.91z" fill="#aeaeae"/><path d="m1018.54 590.05c.24 0 .44-.197.44-.44s-.2-.44-.44-.44-.44.197-.44.44.2.44.44.44z" fill="#aeaeae"/><path d="m1075.98 588.61c2.15 0 3.89-1.742 3.89-3.89s-1.74-3.89-3.89-3.89-3.89 1.742-3.89 3.89 1.74 3.89 3.89 3.89z" fill="#aeaeae"/><path d="m180.89 644.36c1.237 0 2.24-1.003 2.24-2.24s-1.003-2.24-2.24-2.24-2.24 1.003-2.24 2.24 1.003 2.24 2.24 2.24z" fill="#aeaeae"/><path d="m758.39 634.69c.232 0 .42-.188.42-.42s-.188-.42-.42-.42-.42.188-.42.42.188.42.42.42z" fill="#e74666"/><path d="m757.35 626.22c1.049 0 1.9-.851 1.9-1.9s-.851-1.9-1.9-1.9-1.9.851-1.9 1.9.851 1.9 1.9 1.9z" fill="#333"/><path d="m1039.76 624.42c.92 0 1.67-.748 1.67-1.67s-.75-1.67-1.67-1.67-1.67.748-1.67 1.67.75 1.67 1.67 1.67z" fill="#333"/><path d="m1201.95 639.15c1 0 1.81-.81 1.81-1.81 0-.999-.81-1.81-1.81-1.81s-1.81.811-1.81 1.81c0 1 .81 1.81 1.81 1.81z" fill="#333"/></g><g fill="#fff"><path d="m114.112 333.08h14.732v66.7h-14.732zm-14.964 60.088h44.776v11.832h-44.776zm0-65.308h44.776v11.832h-44.776zm56.323 19.14h14.384v58h-14.384zm10.788 32.596c0-6.341.773-12.064 2.32-17.168 1.624-5.104 4.253-9.241 7.888-12.412 3.634-3.248 8.39-4.872 14.268-4.872 5.026 0 9.125.928 12.296 2.784 3.17 1.856 5.452 4.563 6.844 8.12 1.469 3.557 2.204 7.927 2.204 13.108v35.844h-14.268v-34.104c0-3.403-.503-6.148-1.508-8.236-.928-2.088-2.282-3.557-4.06-4.408-1.779-.851-3.944-1.276-6.496-1.276-3.48 0-6.38.773-8.7 2.32s-4.099 4.021-5.336 7.424c-1.238 3.325-1.856 7.617-1.856 12.876zm68.162 6.264c.155 2.243.774 4.215 1.856 5.916 1.16 1.624 2.823 2.939 4.988 3.944 2.166 1.005 4.834 1.508 8.004 1.508 2.939 0 5.259-.309 6.96-.928 1.779-.696 3.016-1.585 3.712-2.668.696-1.16 1.044-2.591 1.044-4.292 0-2.165-.657-3.867-1.972-5.104-1.314-1.237-3.48-2.049-6.496-2.436l-13.688-1.972c-5.258-.773-9.28-2.552-12.064-5.336-2.706-2.784-4.06-6.457-4.06-11.02 0-5.955 2.243-10.517 6.728-13.688 4.486-3.171 10.634-4.756 18.444-4.756 5.104 0 9.551.735 13.34 2.204 3.867 1.469 6.883 3.635 9.048 6.496 2.166 2.784 3.403 6.109 3.712 9.976h-13.688c-.309-2.707-1.546-4.872-3.712-6.496-2.088-1.624-5.065-2.436-8.932-2.436-3.866 0-6.766.657-8.7 1.972-1.856 1.315-2.784 3.093-2.784 5.336 0 1.779.58 3.248 1.74 4.408 1.16 1.083 3.132 1.817 5.916 2.204l12.412 1.624c6.806.928 11.6 2.861 14.384 5.8 2.862 2.939 4.292 6.96 4.292 12.064 0 6.109-2.088 10.749-6.264 13.92s-10.71 4.756-19.604 4.756c-6.418 0-11.677-.928-15.776-2.784-4.098-1.856-7.114-4.331-9.048-7.424-1.933-3.171-2.938-6.767-3.016-10.788zm75.1 19.14c-5.026 0-8.932-.657-11.716-1.972-2.784-1.392-4.756-3.441-5.916-6.148-1.16-2.784-1.74-6.38-1.74-10.788v-28.188h-10.788v-7.076l11.948-4.524 5.916-12.76h7.308v13.456h17.632v10.904h-17.632v35.612h16.24v11.484zm38.908 1.508c-3.866 0-7.269-.657-10.208-1.972-2.861-1.392-5.104-3.364-6.728-5.916-1.546-2.552-2.32-5.568-2.32-9.048 0-3.248.58-6.032 1.74-8.352 1.16-2.397 3.055-4.369 5.684-5.916 2.707-1.547 6.342-2.707 10.904-3.48l14.152-2.32c2.707-.464 4.64-1.16 5.8-2.088 1.238-1.005 1.856-2.436 1.856-4.292 0-1.624-.348-2.977-1.044-4.06-.696-1.16-1.894-2.049-3.596-2.668-1.701-.619-3.982-.928-6.844-.928-4.33 0-7.578.851-9.744 2.552-2.088 1.624-3.248 4.099-3.48 7.424h-14.152c.078-4.099 1.16-7.656 3.248-10.672 2.166-3.093 5.259-5.491 9.28-7.192 4.022-1.701 8.855-2.552 14.5-2.552 5.414 0 10.015.773 13.804 2.32 3.79 1.547 6.612 3.751 8.468 6.612 1.856 2.784 2.784 6.109 2.784 9.976v26.912c0 2.397.039 4.756.116 7.076.078 2.243.271 4.601.58 7.076h-12.76c-.232-2.088-.425-4.176-.58-6.264-.154-2.088-.232-4.253-.232-6.496-.85 2.707-2.204 5.143-4.06 7.308-1.778 2.088-4.137 3.789-7.076 5.104-2.861 1.237-6.225 1.856-10.092 1.856zm4.176-10.324c3.48 0 6.458-.773 8.932-2.32 2.552-1.624 4.486-3.867 5.8-6.728 1.315-2.939 1.972-6.264 1.972-9.976v-3.132c-1.237.928-2.552 1.663-3.944 2.204s-2.977 1.005-4.756 1.392l-1.276.348-6.496 1.508c-3.325.851-5.722 1.972-7.192 3.364-1.469 1.315-2.204 3.171-2.204 5.568 0 2.475.812 4.408 2.436 5.8 1.702 1.315 3.944 1.972 6.728 1.972zm42.795-49.184h14.384v58h-14.384zm10.788 32.596c0-6.341.774-12.064 2.32-17.168 1.624-5.104 4.254-9.241 7.888-12.412 3.635-3.248 8.391-4.872 14.268-4.872 5.027 0 9.126.928 12.296 2.784 3.171 1.856 5.452 4.563 6.844 8.12 1.47 3.557 2.204 7.927 2.204 13.108v35.844h-14.268v-34.104c0-3.403-.502-6.148-1.508-8.236-.928-2.088-2.281-3.557-4.06-4.408-1.778-.851-3.944-1.276-6.496-1.276-3.48 0-6.38.773-8.7 2.32s-4.098 4.021-5.336 7.424c-1.237 3.325-1.856 7.617-1.856 12.876zm82.431 25.404c-5.027 0-8.932-.657-11.716-1.972-2.784-1.392-4.756-3.441-5.916-6.148-1.16-2.784-1.74-6.38-1.74-10.788v-28.188h-10.788v-7.076l11.948-4.524 5.916-12.76h7.308v13.456h17.632v10.904h-17.632v35.612h16.24v11.484zm-388.543 50.86h14.848v77.14h-14.848zm11.136 65.308h41.296v11.832h-41.296zm66.389 13.34c-3.867 0-7.269-.657-10.208-1.972-2.861-1.392-5.104-3.364-6.728-5.916-1.547-2.552-2.32-5.568-2.32-9.048 0-3.248.58-6.032 1.74-8.352 1.16-2.397 3.055-4.369 5.684-5.916 2.707-1.547 6.341-2.707 10.904-3.48l14.152-2.32c2.707-.464 4.64-1.16 5.8-2.088 1.237-1.005 1.856-2.436 1.856-4.292 0-1.624-.348-2.977-1.044-4.06-.696-1.16-1.895-2.049-3.596-2.668s-3.983-.928-6.844-.928c-4.331 0-7.579.851-9.744 2.552-2.088 1.624-3.248 4.099-3.48 7.424h-14.152c.077-4.099 1.16-7.656 3.248-10.672 2.165-3.093 5.259-5.491 9.28-7.192s8.855-2.552 14.5-2.552c5.413 0 10.015.773 13.804 2.32s6.612 3.751 8.468 6.612c1.856 2.784 2.784 6.109 2.784 9.976v26.912c0 2.397.039 4.756.116 7.076.077 2.243.271 4.601.58 7.076h-12.76c-.232-2.088-.425-4.176-.58-6.264s-.232-4.253-.232-6.496c-.851 2.707-2.204 5.143-4.06 7.308-1.779 2.088-4.137 3.789-7.076 5.104-2.861 1.237-6.225 1.856-10.092 1.856zm4.176-10.324c3.48 0 6.457-.773 8.932-2.32 2.552-1.624 4.485-3.867 5.8-6.728 1.315-2.939 1.972-6.264 1.972-9.976v-3.132c-1.237.928-2.552 1.663-3.944 2.204s-2.977 1.005-4.756 1.392l-1.276.348-6.496 1.508c-3.325.851-5.723 1.972-7.192 3.364-1.469 1.315-2.204 3.171-2.204 5.568 0 2.475.812 4.408 2.436 5.8 1.701 1.315 3.944 1.972 6.728 1.972zm78.523-51.04c6.109 0 11.136 1.392 15.08 4.176 4.021 2.707 6.999 6.38 8.932 11.02 1.933 4.563 2.9 9.783 2.9 15.66s-.967 11.136-2.9 15.776-4.911 8.313-8.932 11.02c-3.944 2.707-8.971 4.06-15.08 4.06-8.584 0-14.964-2.707-19.14-8.12-4.176-5.491-6.264-13.069-6.264-22.736 0-9.589 2.088-17.129 6.264-22.62s10.556-8.236 19.14-8.236zm-20.996-21.344v81.2h-14.384v-81.2zm17.168 32.712c-3.867 0-7.076.696-9.628 2.088s-4.447 3.557-5.684 6.496c-1.237 2.861-1.856 6.496-1.856 10.904s.619 8.081 1.856 11.02c1.237 2.861 3.132 4.988 5.684 6.38s5.761 2.088 9.628 2.088c3.944 0 7.115-.696 9.512-2.088s4.137-3.519 5.22-6.38 1.624-6.535 1.624-11.02-.541-8.159-1.624-11.02-2.823-4.988-5.22-6.38-5.568-2.088-9.512-2.088zm50.902 29.348c.155 2.243.774 4.215 1.856 5.916 1.16 1.624 2.823 2.939 4.988 3.944 2.166 1.005 4.834 1.508 8.004 1.508 2.939 0 5.259-.309 6.96-.928 1.779-.696 3.016-1.585 3.712-2.668.696-1.16 1.044-2.591 1.044-4.292 0-2.165-.657-3.867-1.972-5.104-1.314-1.237-3.48-2.049-6.496-2.436l-13.688-1.972c-5.258-.773-9.28-2.552-12.064-5.336-2.706-2.784-4.06-6.457-4.06-11.02 0-5.955 2.243-10.517 6.728-13.688 4.486-3.171 10.634-4.756 18.444-4.756 5.104 0 9.551.735 13.34 2.204 3.867 1.469 6.883 3.635 9.048 6.496 2.166 2.784 3.403 6.109 3.712 9.976h-13.688c-.309-2.707-1.546-4.872-3.712-6.496-2.088-1.624-5.065-2.436-8.932-2.436-3.866 0-6.766.657-8.7 1.972-1.856 1.315-2.784 3.093-2.784 5.336 0 1.779.58 3.248 1.74 4.408 1.16 1.083 3.132 1.817 5.916 2.204l12.412 1.624c6.806.928 11.6 2.861 14.384 5.8 2.862 2.939 4.292 6.96 4.292 12.064 0 6.109-2.088 10.749-6.264 13.92s-10.71 4.756-19.604 4.756c-6.418 0-11.677-.928-15.776-2.784-4.098-1.856-7.114-4.331-9.048-7.424-1.933-3.171-2.938-6.767-3.016-10.788z"/><path d="m164.8 114.851c-.164-.344-.42-.634-.738-.837-.319-.203-.687-.311-1.062-.311h-20.84l16.648-35.7948c.144-.3104.209-.653.189-.996-.021-.3429-.126-.675-.307-.9653-.18-.2903-.43-.5294-.725-.6949-.296-.1656-.628-.2523-.965-.252h-32c-.386-.0001-.763.1135-1.087.3271-.324.2135-.58.5178-.738.8764l-25.9999 59.0735c-.1366.31-.1948.65-.1692.989.0255.339.1339.666.3154.952.1814.285.4301.52.7234.682.2933.163.6218.248.9556.248h19.5187l-9.473 44.38c-.097.451-.04.921.159 1.334.2.414.532.746.941.943.41.197.872.246 1.313.141.44-.106.832-.361 1.112-.723l52-67.222c.232-.3.377-.661.417-1.041.041-.38-.025-.765-.188-1.109z"/></g></g></svg>